# This file uses centimeters as units for non-parametric coordinates.

mtllib money.mtl
g default
v -0.147567 -0.097231 0.500000
v 0.147567 -0.097231 0.500000
v -0.147567 0.097231 0.500000
v 0.147567 0.097231 0.500000
v -0.147567 0.097231 0.166667
v 0.147567 0.097231 0.166667
v -0.147567 0.097231 -0.166667
v 0.147567 0.097231 -0.166667
v -0.147567 0.097231 -0.500000
v 0.147567 0.097231 -0.500000
v -0.147567 -0.097231 -0.500000
v 0.147567 -0.097231 -0.500000
v -0.147567 -0.097231 -0.166667
v 0.147567 -0.097231 -0.166667
v -0.147567 -0.097231 0.166667
v 0.147567 -0.097231 0.166667
v -0.147567 -1.041575 0.159422
v 0.147567 -1.041575 0.159422
v 0.147567 -1.041575 0.492755
v -0.147567 -1.041575 0.492755
v -0.020683 -0.257253 0.398710
v 0.020683 -0.257253 0.398710
v -0.020683 0.360958 0.398710
v 0.020683 0.360958 0.398710
v -0.020683 0.360958 0.352157
v 0.020683 0.360958 0.352157
v -0.020683 -0.257253 0.352157
v 0.020683 -0.257253 0.352157
v -0.020683 -0.257253 0.221200
v 0.020683 -0.257253 0.221200
v -0.020683 0.360958 0.221200
v 0.020683 0.360958 0.221200
v -0.020683 0.360958 0.174646
v 0.020683 0.360958 0.174646
v -0.020683 -0.257253 0.174646
v 0.020683 -0.257253 0.174646
v -0.143920 -0.645980 0.328034
v 0.143920 -0.645980 0.328034
v -0.143920 -0.459502 0.328034
v 0.143920 -0.459502 0.328034
v -0.143920 -0.459502 -0.328034
v 0.143920 -0.459502 -0.328034
v -0.143920 -0.645980 -0.328034
v 0.143920 -0.645980 -0.328034
vt 0.375000 0.000000
vt 0.625000 0.000000
vt 0.625000 0.250000
vt 0.375000 0.250000
vt 0.625000 0.333333
vt 0.375000 0.333333
vt 0.625000 0.416667
vt 0.375000 0.416667
vt 0.625000 0.500000
vt 0.375000 0.500000
vt 0.625000 0.750000
vt 0.375000 0.750000
vt 0.375000 0.750000
vt 0.625000 0.750000
vt 0.625000 0.833333
vt 0.375000 0.833333
vt 0.375000 0.833333
vt 0.625000 0.833333
vt 0.625000 0.916667
vt 0.375000 0.916667
vt 0.625000 1.000000
vt 0.375000 1.000000
vt 0.791667 0.000000
vt 0.875000 0.000000
vt 0.875000 0.250000
vt 0.791667 0.250000
vt 0.708333 0.000000
vt 0.708333 0.250000
vt 0.125000 0.000000
vt 0.208333 0.000000
vt 0.208333 0.250000
vt 0.125000 0.250000
vt 0.291667 0.000000
vt 0.291667 0.250000
vt 0.375000 0.000000
vt 0.625000 0.000000
vt 0.625000 0.250000
vt 0.375000 0.250000
vt 0.625000 0.500000
vt 0.375000 0.500000
vt 0.625000 0.750000
vt 0.375000 0.750000
vt 0.625000 1.000000
vt 0.375000 1.000000
vt 0.875000 0.000000
vt 0.875000 0.250000
vt 0.125000 0.000000
vt 0.125000 0.250000
vt 0.375000 0.000000
vt 0.625000 0.000000
vt 0.625000 0.250000
vt 0.375000 0.250000
vt 0.625000 0.500000
vt 0.375000 0.500000
vt 0.625000 0.750000
vt 0.375000 0.750000
vt 0.625000 1.000000
vt 0.375000 1.000000
vt 0.875000 0.000000
vt 0.875000 0.250000
vt 0.125000 0.000000
vt 0.125000 0.250000
vt 0.375000 0.000000
vt 0.625000 0.000000
vt 0.625000 0.250000
vt 0.375000 0.250000
vt 0.625000 0.500000
vt 0.375000 0.500000
vt 0.625000 0.750000
vt 0.375000 0.750000
vt 0.625000 1.000000
vt 0.375000 1.000000
vt 0.875000 0.000000
vt 0.875000 0.250000
vt 0.125000 0.000000
vt 0.125000 0.250000
vn 0.000000 0.000000 1.000000
vn 0.000000 0.000000 1.000000
vn 0.000000 0.000000 1.000000
vn 0.000000 0.000000 1.000000
vn 0.000000 1.000000 0.000000
vn 0.000000 1.000000 0.000000
vn 0.000000 1.000000 0.000000
vn 0.000000 1.000000 0.000000
vn 0.000000 1.000000 0.000000
vn 0.000000 1.000000 0.000000
vn 0.000000 1.000000 0.000000
vn 0.000000 1.000000 0.000000
vn 0.000000 0.000000 -1.000000
vn 0.000000 0.000000 -1.000000
vn 0.000000 0.000000 -1.000000
vn 0.000000 0.000000 -1.000000
vn 0.000000 -1.000000 0.000000
vn 0.000000 -1.000000 0.000000
vn 0.000000 -1.000000 0.000000
vn 0.000000 -1.000000 0.000000
vn 0.000000 -1.000000 0.000000
vn 0.000000 -1.000000 0.000000
vn 0.000000 -1.000000 0.000000
vn 0.000000 -1.000000 0.000000
vn 0.000000 -1.000000 0.000000
vn 0.000000 -1.000000 0.000000
vn 1.000000 0.000000 0.000000
vn 1.000000 0.000000 0.000000
vn 1.000000 -0.000000 0.000000
vn 1.000000 -0.000000 0.000000
vn 1.000000 -0.000000 0.000000
vn 1.000000 -0.000000 0.000000
vn 1.000000 0.000000 0.000000
vn 1.000000 0.000000 0.000000
vn -1.000000 0.000000 0.000000
vn -1.000000 0.000000 0.000000
vn -1.000000 0.000000 0.000000
vn -1.000000 0.000000 0.000000
vn -1.000000 0.000000 0.000000
vn -1.000000 0.000000 0.000000
vn -1.000000 0.000000 0.000000
vn -1.000000 0.000000 0.000000
vn 0.000000 -0.572518 -0.819892
vn 0.000000 -0.572518 -0.819892
vn 0.000000 -0.572518 -0.819892
vn 0.000000 -0.572518 -0.819892
vn 1.000000 0.000000 0.000000
vn 1.000000 0.000000 0.000000
vn 0.000000 0.572518 0.819892
vn 0.000000 0.572518 0.819892
vn 0.000000 0.572518 0.819892
vn 0.000000 0.572518 0.819892
vn -1.000000 0.000000 0.000000
vn -1.000000 0.000000 0.000000
vn 0.000000 0.000000 1.000000
vn 0.000000 0.000000 1.000000
vn 0.000000 0.000000 1.000000
vn 0.000000 0.000000 1.000000
vn 0.000000 1.000000 0.000000
vn 0.000000 1.000000 0.000000
vn 0.000000 1.000000 0.000000
vn 0.000000 1.000000 0.000000
vn 0.000000 0.000000 -1.000000
vn 0.000000 0.000000 -1.000000
vn 0.000000 0.000000 -1.000000
vn 0.000000 0.000000 -1.000000
vn 0.000000 -1.000000 0.000000
vn 0.000000 -1.000000 0.000000
vn 0.000000 -1.000000 0.000000
vn 0.000000 -1.000000 0.000000
vn 1.000000 0.000000 0.000000
vn 1.000000 0.000000 0.000000
vn 1.000000 0.000000 0.000000
vn 1.000000 0.000000 0.000000
vn -1.000000 0.000000 0.000000
vn -1.000000 0.000000 0.000000
vn -1.000000 0.000000 0.000000
vn -1.000000 0.000000 0.000000
vn 0.000000 0.000000 1.000000
vn 0.000000 0.000000 1.000000
vn 0.000000 0.000000 1.000000
vn 0.000000 0.000000 1.000000
vn 0.000000 1.000000 0.000000
vn 0.000000 1.000000 0.000000
vn 0.000000 1.000000 0.000000
vn 0.000000 1.000000 0.000000
vn 0.000000 0.000000 -1.000000
vn 0.000000 0.000000 -1.000000
vn 0.000000 0.000000 -1.000000
vn 0.000000 0.000000 -1.000000
vn 0.000000 -1.000000 0.000000
vn 0.000000 -1.000000 0.000000
vn 0.000000 -1.000000 0.000000
vn 0.000000 -1.000000 0.000000
vn 1.000000 0.000000 0.000000
vn 1.000000 0.000000 0.000000
vn 1.000000 0.000000 0.000000
vn 1.000000 0.000000 0.000000
vn -1.000000 0.000000 0.000000
vn -1.000000 0.000000 0.000000
vn -1.000000 0.000000 0.000000
vn -1.000000 0.000000 0.000000
vn 0.000000 0.000000 1.000000
vn 0.000000 0.000000 1.000000
vn 0.000000 0.000000 1.000000
vn 0.000000 0.000000 1.000000
vn 0.000000 1.000000 0.000000
vn 0.000000 1.000000 0.000000
vn 0.000000 1.000000 0.000000
vn 0.000000 1.000000 0.000000
vn 0.000000 0.000000 -1.000000
vn 0.000000 0.000000 -1.000000
vn 0.000000 0.000000 -1.000000
vn 0.000000 0.000000 -1.000000
vn 0.000000 -1.000000 0.000000
vn 0.000000 -1.000000 0.000000
vn 0.000000 -1.000000 0.000000
vn 0.000000 -1.000000 0.000000
vn 1.000000 0.000000 0.000000
vn 1.000000 0.000000 0.000000
vn 1.000000 0.000000 0.000000
vn 1.000000 0.000000 0.000000
vn -1.000000 0.000000 0.000000
vn -1.000000 0.000000 0.000000
vn -1.000000 0.000000 0.000000
vn -1.000000 0.000000 0.000000
s off
g polySurface5
usemtl lambert2SG
f 1/1/1 2/2/2 4/3/3 3/4/4
s 1
f 3/4/5 4/3/6 6/5/7 5/6/8
f 5/6/8 6/5/7 8/7/9 7/8/10
f 7/8/10 8/7/9 10/9/11 9/10/12
s off
f 9/10/13 10/9/14 12/11/15 11/12/16
f 17/13/17 18/14/18 19/15/19 20/16/20
s 2
f 13/17/21 14/18/22 16/19/23 15/20/24
f 15/20/24 16/19/23 2/21/25 1/22/26
s 3
f 14/23/27 12/24/28 10/25/29 8/26/30
f 16/27/31 14/23/27 8/26/30 6/28/32
f 2/2/33 16/27/31 6/28/32 4/3/34
s 4
f 11/29/35 13/30/36 7/31/37 9/32/38
f 13/30/36 15/33/39 5/34/40 7/31/37
f 15/33/39 1/1/41 3/4/42 5/34/40
s off
f 11/12/43 12/11/44 18/14/45 17/13/46
s 3
f 12/11/28 14/18/27 19/15/47 18/14/48
s off
f 14/18/49 13/17/50 20/16/51 19/15/52
s 4
f 13/17/36 11/12/35 17/13/53 20/16/54
s off
f 21/35/55 22/36/56 24/37/57 23/38/58
f 23/38/59 24/37/60 26/39/61 25/40/62
f 25/40/63 26/39/64 28/41/65 27/42/66
f 27/42/67 28/41/68 22/43/69 21/44/70
f 22/36/71 28/45/72 26/46/73 24/37/74
f 27/47/75 21/35/76 23/38/77 25/48/78
f 29/49/79 30/50/80 32/51/81 31/52/82
f 31/52/83 32/51/84 34/53/85 33/54/86
f 33/54/87 34/53/88 36/55/89 35/56/90
f 35/56/91 36/55/92 30/57/93 29/58/94
f 30/50/95 36/59/96 34/60/97 32/51/98
f 35/61/99 29/49/100 31/52/101 33/62/102
f 37/63/103 38/64/104 40/65/105 39/66/106
f 39/66/107 40/65/108 42/67/109 41/68/110
f 41/68/111 42/67/112 44/69/113 43/70/114
f 43/70/115 44/69/116 38/71/117 37/72/118
f 38/64/119 44/73/120 42/74/121 40/65/122
f 43/75/123 37/63/124 39/66/125 41/76/126
