# This file uses centimeters as units for non-parametric coordinates.

mtllib regen.mtl
g default
v -0.180417 -0.278103 0.027194
v 0.180417 -0.278103 0.027194
v -0.180417 -0.278103 -0.027194
v 0.180417 -0.278103 -0.027194
v -0.180417 -0.109966 0.027194
v 0.180417 -0.109966 0.027194
v -0.180417 -0.109966 -0.027194
v 0.180417 -0.109966 -0.027194
v -0.158966 -0.109966 0.020131
v -0.158966 -0.109966 -0.020131
v 0.158966 -0.109966 -0.020131
v 0.158966 -0.109966 0.020131
v -0.158966 0.274252 0.020131
v 0.158966 0.274252 0.020131
v 0.158966 0.274252 -0.020131
v -0.158966 0.274252 -0.020131
v -0.175384 -0.109966 -0.000000
v 0.175384 -0.109966 -0.000000
v 0.175384 0.274252 0.000000
v -0.175384 0.274252 0.000000
v -0.168524 -0.287518 0.015301
v -0.168524 -0.287518 -0.015301
v 0.168524 -0.287518 -0.015301
v 0.168524 -0.287518 0.015301
v 0.158966 0.287518 0.000000
v -0.158966 0.287518 0.000000
vt 0.370672 0.202467
vt 0.370672 0.149340
vt 0.955801 0.149340
vt 0.955801 0.202467
vt 0.301522 0.990468
vt 0.301522 0.364044
vt 0.301299 0.990582
vt 0.301299 0.364158
vt 0.976448 0.228800
vt 0.350025 0.228800
vt 0.009629 0.990468
vt 0.009629 0.364044
vt 0.982135 0.128694
vt 0.982135 0.223114
vt 0.155872 0.332398
vt 0.061452 0.332398
vt 0.350025 0.123007
vt 0.976448 0.123007
vt 0.155924 0.332274
vt 0.009406 0.364158
vt 0.344339 0.223114
vt 0.344339 0.128693
vt 0.155872 0.040505
vt 0.155923 0.040381
vt 0.394993 0.948007
vt 0.946935 0.948007
vt 0.946868 0.989805
vt 0.394926 0.989805
vt 0.394993 0.249527
vt 0.946935 0.249527
vt 0.009406 0.990582
vt 0.061502 0.040381
vt 0.061451 0.040505
vt 0.349829 0.249471
vt 0.394926 0.249471
vt 0.992033 0.249527
vt 0.061502 0.332274
vt 0.946868 0.249471
vt 0.946868 0.947951
vt 0.394926 0.947951
vt 0.909774 0.102809
vt 0.349896 0.249527
vt 0.283350 0.102809
vt 0.991966 0.249471
vt 0.283350 0.008388
vt 0.909774 0.008388
vt 0.367842 0.979861
vt 0.349829 0.947951
vt 0.349896 0.948007
vt 0.367910 0.979917
vt 0.992033 0.948007
vt 0.991966 0.947951
vt 0.973952 0.979861
vt 0.974019 0.979916
vt 0.946935 0.989861
vt 0.394993 0.989861
vn 0.000000 -1.000000 -0.000000
vn 0.000000 -1.000000 -0.000000
vn 0.000000 -1.000000 -0.000000
vn 0.000000 -1.000000 -0.000000
vn 0.000000 -1.000000 -0.000000
vn 0.000000 -1.000000 -0.000000
vn 0.000000 1.000000 0.000000
vn 0.000000 1.000000 0.000000
vn 0.000000 1.000000 0.000000
vn 0.000000 1.000000 0.000000
vn 0.000000 1.000000 0.000000
vn 0.000000 1.000000 0.000000
vn 0.000000 -0.000000 1.000000
vn 0.000000 -0.000000 1.000000
vn 0.000000 -0.000000 1.000000
vn 0.000000 -0.000000 1.000000
vn 0.000000 -0.000000 1.000000
vn 0.000000 -0.000000 1.000000
vn 1.000000 0.000000 0.000000
vn 1.000000 0.000000 0.000000
vn 1.000000 0.000000 0.000000
vn 1.000000 0.000000 0.000000
vn 1.000000 0.000000 0.000000
vn 1.000000 0.000000 0.000000
vn 0.000000 0.000000 -1.000000
vn 0.000000 0.000000 -1.000000
vn 0.000000 0.000000 -1.000000
vn 0.000000 0.000000 -1.000000
vn 0.000000 0.000000 -1.000000
vn 0.000000 0.000000 -1.000000
vn -1.000000 0.000000 0.000000
vn -1.000000 0.000000 0.000000
vn -1.000000 0.000000 0.000000
vn -1.000000 0.000000 0.000000
vn -1.000000 0.000000 0.000000
vn -1.000000 0.000000 0.000000
vn -0.559288 0.692203 0.456128
vn -0.559288 0.692203 0.456128
vn -0.559288 0.692203 0.456128
vn 0.000000 -0.000000 1.000000
vn 0.000000 -0.000000 1.000000
vn 0.000000 -0.000000 1.000000
vn 0.000000 -0.000000 1.000000
vn 0.000000 -0.000000 1.000000
vn 0.000000 -0.000000 1.000000
vn 0.774956 -0.000000 0.632016
vn 0.774956 -0.000000 0.632016
vn 0.774956 -0.000000 0.632016
vn 0.774956 -0.000000 0.632016
vn 0.774956 -0.000000 0.632016
vn 0.774956 -0.000000 0.632016
vn 0.000000 0.000000 -1.000000
vn 0.000000 0.000000 -1.000000
vn 0.000000 0.000000 -1.000000
vn 0.000000 0.000000 -1.000000
vn 0.000000 0.000000 -1.000000
vn 0.000000 0.000000 -1.000000
vn -0.774956 0.000000 -0.632016
vn -0.774956 0.000000 -0.632016
vn -0.774956 0.000000 -0.632016
vn -0.774956 0.000000 -0.632016
vn -0.774956 0.000000 -0.632016
vn -0.774956 0.000000 -0.632016
vn -0.559288 0.692203 -0.456128
vn -0.559288 0.692203 -0.456128
vn -0.559288 0.692203 -0.456128
vn 0.774956 0.000000 -0.632016
vn 0.774956 0.000000 -0.632016
vn 0.774956 0.000000 -0.632016
vn 0.774956 0.000000 -0.632016
vn 0.774956 0.000000 -0.632016
vn 0.774956 0.000000 -0.632016
vn -0.774956 -0.000000 0.632016
vn -0.774956 -0.000000 0.632016
vn -0.774956 -0.000000 0.632016
vn -0.774956 -0.000000 0.632016
vn -0.774956 -0.000000 0.632016
vn -0.774956 -0.000000 0.632016
vn -0.620673 -0.784069 -0.000000
vn -0.620673 -0.784069 -0.000000
vn -0.620673 -0.784069 -0.000000
vn -0.620673 -0.784069 -0.000000
vn -0.620673 -0.784069 -0.000000
vn -0.620673 -0.784069 -0.000000
vn 0.000000 -0.784069 -0.620674
vn 0.000000 -0.784069 -0.620674
vn 0.000000 -0.784069 -0.620674
vn 0.000000 -0.784069 -0.620674
vn 0.000000 -0.784069 -0.620674
vn 0.000000 -0.784069 -0.620674
vn 0.620673 -0.784069 -0.000000
vn 0.620673 -0.784069 -0.000000
vn 0.620673 -0.784069 -0.000000
vn 0.620673 -0.784069 -0.000000
vn 0.620673 -0.784069 -0.000000
vn 0.620673 -0.784069 -0.000000
vn 0.000000 -0.784069 0.620674
vn 0.000000 -0.784069 0.620674
vn 0.000000 -0.784069 0.620674
vn 0.000000 -0.784069 0.620674
vn 0.000000 -0.784069 0.620674
vn 0.000000 -0.784069 0.620674
vn 0.559288 0.692203 0.456128
vn 0.559288 0.692203 0.456128
vn 0.559288 0.692203 0.456128
vn 0.559288 0.692203 -0.456128
vn 0.559288 0.692203 -0.456128
vn 0.559288 0.692203 -0.456128
vn 0.000000 0.835012 0.550232
vn 0.000000 0.835012 0.550232
vn 0.000000 0.835012 0.550232
vn 0.000000 0.835012 0.550232
vn 0.000000 0.835012 0.550232
vn 0.000000 0.835012 0.550232
vn 0.000000 0.835012 -0.550232
vn 0.000000 0.835012 -0.550232
vn 0.000000 0.835012 -0.550232
vn 0.000000 0.835012 -0.550232
vn 0.000000 0.835012 -0.550232
vn 0.000000 0.835012 -0.550232
s off
g Card02
usemtl Card02SG
f 21/1/1 22/2/2 23/3/3
f 23/3/4 24/4/5 21/1/6
f 5/41/7 6/43/8 8/45/9
f 8/45/10 7/46/11 5/41/12
f 1/11/13 2/12/14 6/6/15
f 6/6/16 5/5/17 1/11/18
f 2/15/19 4/16/20 8/33/21
f 8/33/22 6/23/23 2/15/24
f 4/31/25 3/20/26 7/8/27
f 7/8/28 8/7/29 4/31/30
f 3/32/31 1/24/32 5/19/33
f 5/19/34 7/37/35 3/32/36
f 13/25/37 26/50/38 20/49/39
f 9/29/40 12/30/41 14/26/42
f 14/26/43 13/25/44 9/29/45
f 18/36/46 19/51/47 14/26/48
f 14/26/49 12/30/50 18/36/51
f 11/35/52 10/38/53 16/39/54
f 16/39/55 15/40/56 11/35/57
f 17/44/58 20/52/59 16/39/60
f 16/39/61 10/38/62 17/44/63
f 16/39/64 20/52/65 26/53/66
f 11/35/67 15/40/68 19/48/69
f 19/48/70 18/34/71 11/35/72
f 9/29/73 13/25/74 20/49/75
f 20/49/76 17/42/77 9/29/78
f 1/21/79 3/22/80 22/2/81
f 22/2/82 21/1/83 1/21/84
f 3/17/85 4/18/86 23/3/87
f 23/3/88 22/2/89 3/17/90
f 4/13/91 2/14/92 24/4/93
f 24/4/94 23/3/95 4/13/96
f 2/9/97 1/10/98 21/1/99
f 21/1/100 24/4/101 2/9/102
f 14/26/103 19/51/104 25/54/105
f 25/47/106 19/48/107 15/40/108
f 14/26/109 25/55/110 26/56/111
f 26/56/112 13/25/113 14/26/114
f 25/28/115 15/40/116 16/39/117
f 16/39/118 26/27/119 25/28/120
