# This file uses centimeters as units for non-parametric coordinates.

mtllib Rock2.mtl
g default
v -0.295400 -0.113976 -1.368500
v -0.161100 -1.429976 -1.206000
v -0.698300 -0.436276 -1.501900
v -1.074300 -0.248276 -1.236600
v -0.778900 0.342624 -1.268200
v -0.107400 0.987124 -1.290700
v 0.241700 -2.574576 -0.752000
v -0.391400 -1.322576 -0.966800
v -1.210300 -0.436276 -1.047400
v 0.456600 -0.489976 -0.768100
v -1.127500 0.584324 -0.805700
v -0.617700 1.202024 -0.758300
v 0.402900 1.792824 -1.128600
v 0.671400 -0.543676 -0.656900
v -0.788800 -1.698576 -0.456600
v 0.618000 1.390024 -0.886300
v 0.966800 0.530524 -0.341500
v -0.026900 1.797824 -0.886300
v 0.402900 2.785924 -0.322300
v 0.618200 -1.779076 -0.644600
v 0.429700 -2.705476 -0.617700
v -1.289900 -0.570576 -0.644600
v -1.261100 -0.087176 -0.322300
v 0.769000 1.416824 0.053700
v 0.624300 1.658524 -0.268600
v -0.198000 2.408124 -0.363200
v -0.402900 -1.752276 -0.081400
v -0.805700 -1.680576 -0.268600
v 0.873900 -0.624276 -0.483400
v 0.720100 -1.913376 -0.188000
v -1.222900 -0.248276 -0.188000
v -1.003100 1.390024 -0.349100
v 0.456600 -2.638576 -0.213300
v -1.300100 -1.027176 0.080600
v 0.604500 2.276224 0.026900
v -0.376000 2.540024 -0.190300
v 0.008800 3.216224 0.243400
v -0.152800 -2.101376 0.053700
v -0.940500 -1.752276 -0.053700
v -1.269800 -0.597376 0.295400
v -1.024900 0.530524 0.295400
v 1.092500 0.557424 -0.053700
v 0.916200 -1.215076 0.429700
v 1.103100 0.315724 0.241700
v -0.855800 2.195724 0.135300
v 0.322300 3.169724 0.053700
v 0.000000 -2.369976 0.456600
v 0.402900 -2.128276 0.184700
v 0.814400 -1.752276 0.376000
v 0.966800 0.503724 0.369300
v 0.739200 1.202024 0.322300
v -0.915800 1.309424 0.402900
v 0.456600 2.544824 0.334400
v -0.456600 3.025624 0.483400
v -0.617700 -1.896276 0.322300
v -0.966800 -1.343676 0.429700
v -0.349100 -2.182176 0.644600
v 0.884200 -0.033376 0.349100
v -1.052800 0.530524 0.644600
v 0.564000 0.584324 1.216500
v 0.758100 1.040824 0.913100
v -0.904800 1.846524 0.752000
v -0.644600 2.819224 0.564000
v 0.214900 0.799124 1.316300
v 0.644600 -1.456876 0.668200
v 0.214900 -1.239476 0.725100
v -0.322300 -1.456876 0.861600
v -0.805700 0.127724 0.837600
v -1.087200 -0.543676 0.537100
v 0.107400 1.712324 0.772500
v -0.510300 1.712324 1.113800
v -0.778900 2.088324 1.023100
v 0.402900 -0.328876 1.132200
v 0.617700 -0.463176 0.926000
v -0.965900 1.309424 0.940000
v -0.376000 -0.543676 1.047200
v 0.053700 -0.704876 1.016700
v -0.214900 0.208324 1.151600
v 0.429700 0.154624 1.262000
vt 0.376500 0.599300
vt 0.231800 0.573500
vt 0.357600 0.540200
vt 0.405700 0.513200
vt 0.445200 0.571500
vt 0.482400 0.665500
vt 0.089800 0.592300
vt 0.238300 0.539000
vt 0.407100 0.485100
vt 0.300800 0.686200
vt 0.504800 0.540400
vt 0.548700 0.614300
vt 0.550900 0.751400
vt 0.286800 0.708900
vt 0.318400 0.354400
vt 0.494700 0.767500
vt 0.379800 0.795500
vt 0.576400 0.703000
vt 0.621800 0.877700
vt 0.159200 0.659800
vt 0.066100 0.612700
vt 0.189100 0.473700
vt 0.423300 0.444500
vt 0.487300 0.451400
vt 0.460000 0.868600
vt 0.499500 0.842500
vt 0.674100 0.692900
vt 0.695100 0.768600
vt 0.057300 0.593400
vt 0.134100 0.463200
vt 0.180900 0.456700
vt 0.268600 0.732000
vt 0.124300 0.700300
vt 0.336200 0.335300
vt 0.483800 0.430800
vt 0.599800 0.573200
vt 0.050900 0.657000
vt 0.438400 0.350800
vt 0.552000 0.896600
vt 0.703300 0.673600
vt 0.774000 0.732700
vt 0.031700 0.553200
vt 0.088100 0.477400
vt 0.176100 0.423700
vt 0.383200 0.278400
vt 0.358100 0.293400
vt 0.490300 0.367900
vt 0.583200 0.456800
vt 0.370400 0.822400
vt 0.167700 0.799700
vt 0.335300 0.839000
vt 0.701400 0.600700
vt 0.649100 0.932500
vt 0.755900 0.765400
vt 0.441800 0.119700
vt 0.441500 0.024200
vt 0.486900 0.079600
vt 0.035300 0.457100
vt 0.114100 0.765500
vt 0.349000 0.865400
vt 0.427400 0.890900
vt 0.655200 0.509600
vt 0.572100 0.937300
vt 0.789100 0.664200
vt 0.552300 0.081900
vt 0.114900 0.415900
vt 0.452800 0.287400
vt 0.409900 0.227900
vt 0.057900 0.413000
vt 0.423600 0.173300
vt 0.291000 0.847300
vt 0.608200 0.430200
vt 0.322000 0.966200
vt 0.386300 0.945600
vt 0.727100 0.524700
vt 0.781400 0.629100
vt 0.744700 0.284400
vt 0.808100 0.302300
vt 0.734000 0.330500
vt 0.567900 0.128900
vt 0.557300 0.180400
vt 0.504400 0.218100
vt 0.436000 0.169600
vt 0.609500 0.105400
vt 0.600800 0.374300
vt 0.517200 0.351500
vt 0.821900 0.406100
vt 0.929100 0.440800
vt 0.760200 0.453700
vt 0.884800 0.548700
vt 0.849600 0.546700
vt 0.774200 0.494800
vt 0.973500 0.501800
vt 0.946600 0.527900
vt 0.654300 0.235800
vt 0.657100 0.199700
vt 0.221300 0.894300
vt 0.688900 0.476200
vt 0.582100 0.286300
vt 0.596400 0.237800
vt 0.654300 0.327500
vt 0.697400 0.268900
vn 0.458100 -0.026700 -0.888500
vn 0.107495 -0.290386 -0.950853
vn -0.221591 -0.165094 -0.961063
vn -0.711793 0.055499 -0.700193
vn -0.489569 0.332579 -0.806048
vn -0.221591 -0.165094 -0.961063
vn -0.221591 -0.165094 -0.961063
vn -0.489569 0.332579 -0.806048
vn 0.014900 0.198402 -0.980008
vn -0.221591 -0.165094 -0.961063
vn 0.014900 0.198402 -0.980008
vn 0.458100 -0.026700 -0.888500
vn -0.221591 -0.165094 -0.961063
vn -0.204003 -0.749313 -0.630011
vn -0.644382 -0.515986 -0.564385
vn -0.204003 -0.749313 -0.630011
vn -0.221591 -0.165094 -0.961063
vn 0.107495 -0.290386 -0.950853
vn -0.866388 -0.180797 -0.465494
vn -0.711793 0.055499 -0.700193
vn -0.221591 -0.165094 -0.961063
vn 0.513525 -0.074404 -0.854842
vn 0.458100 -0.026700 -0.888500
vn 0.014900 0.198402 -0.980008
vn -0.849616 0.324306 -0.415908
vn -0.489569 0.332579 -0.806048
vn -0.711793 0.055499 -0.700193
vn -0.849616 0.324306 -0.415908
vn -0.574884 0.474387 -0.666682
vn -0.489569 0.332579 -0.806048
vn 0.337405 0.393406 -0.855213
vn 0.577391 -0.037899 -0.815588
vn 0.014900 0.198402 -0.980008
vn -0.866388 -0.180797 -0.465494
vn -0.221591 -0.165094 -0.961063
vn -0.739392 -0.592693 -0.319396
vn -0.866388 -0.180797 -0.465494
vn -0.849616 0.324306 -0.415908
vn -0.711793 0.055499 -0.700193
vn 0.014900 0.198402 -0.980008
vn 0.577391 -0.037899 -0.815588
vn 0.513525 -0.074404 -0.854842
vn 0.458100 -0.026700 -0.888500
vn 0.513525 -0.074404 -0.854842
vn 0.107495 -0.290386 -0.950853
vn 0.872601 0.102300 -0.477601
vn 0.895391 0.067099 -0.440196
vn 0.577391 -0.037899 -0.815588
vn 0.337405 0.393406 -0.855213
vn 0.872601 0.102300 -0.477601
vn 0.577391 -0.037899 -0.815588
vn -0.489569 0.332579 -0.806048
vn -0.574884 0.474387 -0.666682
vn -0.489788 0.468788 -0.735082
vn -0.489569 0.332579 -0.806048
vn -0.489788 0.468788 -0.735082
vn 0.014900 0.198402 -0.980008
vn 0.337405 0.393406 -0.855213
vn 0.014900 0.198402 -0.980008
vn -0.489788 0.468788 -0.735082
vn 0.872601 0.102300 -0.477601
vn 0.337405 0.393406 -0.855213
vn 0.457393 0.633090 -0.624490
vn 0.790918 -0.139903 -0.595714
vn 0.266201 -0.893805 -0.360902
vn -0.204003 -0.749313 -0.630011
vn 0.790918 -0.139903 -0.595714
vn -0.204003 -0.749313 -0.630011
vn 0.107495 -0.290386 -0.950853
vn -0.739392 -0.592693 -0.319396
vn -0.221591 -0.165094 -0.961063
vn -0.644382 -0.515986 -0.564385
vn -0.644382 -0.515986 -0.564385
vn -0.204003 -0.749313 -0.630011
vn -0.739392 -0.592693 -0.319396
vn 0.790918 -0.139903 -0.595714
vn 0.513525 -0.074404 -0.854842
vn 0.577391 -0.037899 -0.815588
vn 0.513525 -0.074404 -0.854842
vn 0.790918 -0.139903 -0.595714
vn 0.107495 -0.290386 -0.950853
vn -0.739392 -0.592693 -0.319396
vn -0.974694 -0.145399 -0.169799
vn -0.866388 -0.180797 -0.465494
vn -0.979017 0.105402 0.174403
vn -0.866388 -0.180797 -0.465494
vn -0.974694 -0.145399 -0.169799
vn 0.965511 0.256903 0.042300
vn 0.872601 0.102300 -0.477601
vn 0.971930 0.181906 -0.149205
vn -0.394491 0.529388 -0.751083
vn -0.489788 0.468788 -0.735082
vn -0.574884 0.474387 -0.666682
vn 0.337405 0.393406 -0.855213
vn -0.394491 0.529388 -0.751083
vn 0.457393 0.633090 -0.624490
vn 0.337405 0.393406 -0.855213
vn -0.489788 0.468788 -0.735082
vn -0.394491 0.529388 -0.751083
vn -0.204003 -0.749313 -0.630011
vn 0.266201 -0.893805 -0.360902
vn -0.440196 -0.897692 -0.019400
vn -0.440196 -0.897692 -0.019400
vn -0.657721 -0.735124 -0.164305
vn -0.204003 -0.749313 -0.630011
vn 0.923302 -0.059100 -0.379501
vn 0.959330 -0.236707 -0.153805
vn 0.790918 -0.139903 -0.595714
vn 0.790918 -0.139903 -0.595714
vn 0.959330 -0.236707 -0.153805
vn 0.266201 -0.893805 -0.360902
vn -0.739392 -0.592693 -0.319396
vn -0.204003 -0.749313 -0.630011
vn -0.657721 -0.735124 -0.164305
vn -0.657721 -0.735124 -0.164305
vn -0.974694 -0.145399 -0.169799
vn -0.739392 -0.592693 -0.319396
vn 0.923302 -0.059100 -0.379501
vn 0.790918 -0.139903 -0.595714
vn 0.577391 -0.037899 -0.815588
vn -0.974694 -0.145399 -0.169799
vn -0.983362 0.123095 0.133595
vn -0.979017 0.105402 0.174403
vn 0.895391 0.067099 -0.440196
vn 0.923302 -0.059100 -0.379501
vn 0.577391 -0.037899 -0.815588
vn -0.866388 -0.180797 -0.465494
vn -0.979017 0.105402 0.174403
vn -0.849616 0.324306 -0.415908
vn -0.863835 0.368215 -0.343814
vn -0.849616 0.324306 -0.415908
vn -0.979017 0.105402 0.174403
vn -0.849616 0.324306 -0.415908
vn -0.863835 0.368215 -0.343814
vn -0.574884 0.474387 -0.666682
vn 0.959330 -0.236707 -0.153805
vn 0.308615 -0.915044 0.259713
vn 0.266201 -0.893805 -0.360902
vn -0.974694 -0.145399 -0.169799
vn -0.657721 -0.735124 -0.164305
vn -0.950488 -0.286196 0.121098
vn 0.923302 -0.059100 -0.379501
vn 0.895391 0.067099 -0.440196
vn 0.959330 -0.236707 -0.153805
vn -0.983362 0.123095 0.133595
vn -0.863835 0.368215 -0.343814
vn -0.979017 0.105402 0.174403
vn 0.872601 0.102300 -0.477601
vn 0.974225 0.223106 0.033301
vn 0.971930 0.181906 -0.149205
vn -0.518584 0.544083 -0.659579
vn -0.394491 0.529388 -0.751083
vn -0.574884 0.474387 -0.666682
vn 0.457393 0.633090 -0.624490
vn 0.974225 0.223106 0.033301
vn 0.872601 0.102300 -0.477601
vn 0.457393 0.633090 -0.624490
vn -0.394491 0.529388 -0.751083
vn -0.024199 0.982366 0.185394
vn 0.266201 -0.893805 -0.360902
vn 0.308615 -0.915044 0.259713
vn -0.761513 -0.637611 -0.116402
vn -0.641466 -0.743660 -0.188390
vn -0.657721 -0.735124 -0.164305
vn -0.440196 -0.897692 -0.019400
vn -0.641466 -0.743660 -0.188390
vn -0.950488 -0.286196 0.121098
vn -0.657721 -0.735124 -0.164305
vn -0.974694 -0.145399 -0.169799
vn -0.950488 -0.286196 0.121098
vn -0.938752 -0.008700 0.344483
vn -0.983362 0.123095 0.133595
vn -0.986020 0.163503 0.032101
vn -0.863835 0.368215 -0.343814
vn 0.895391 0.067099 -0.440196
vn 0.975700 0.183200 -0.120200
vn 0.959330 -0.236707 -0.153805
vn 0.943177 -0.139497 0.301593
vn 0.975700 0.183200 -0.120200
vn 0.925939 0.020501 0.377116
vn 0.895391 0.067099 -0.440196
vn 0.965511 0.256903 0.042300
vn 0.975700 0.183200 -0.120200
vn 0.872601 0.102300 -0.477601
vn 0.965511 0.256903 0.042300
vn 0.895391 0.067099 -0.440196
vn 0.974225 0.223106 0.033301
vn 0.965511 0.256903 0.042300
vn 0.971930 0.181906 -0.149205
vn -0.863835 0.368215 -0.343814
vn -0.898015 0.344306 -0.273904
vn -0.574884 0.474387 -0.666682
vn -0.574884 0.474387 -0.666682
vn -0.898015 0.344306 -0.273904
vn -0.518584 0.544083 -0.659579
vn -0.518584 0.544083 -0.659579
vn -0.024199 0.982366 0.185394
vn -0.394491 0.529388 -0.751083
vn 0.974225 0.223106 0.033301
vn 0.457393 0.633090 -0.624490
vn 0.449012 0.885924 -0.116303
vn -0.024199 0.982366 0.185394
vn 0.449012 0.885924 -0.116303
vn 0.457393 0.633090 -0.624490
vn -0.052099 -0.883677 0.465188
vn 0.308615 -0.915044 0.259713
vn 0.470393 -0.568792 0.674690
vn 0.308615 -0.915044 0.259713
vn -0.052099 -0.883677 0.465188
vn -0.761513 -0.637611 -0.116402
vn -0.761513 -0.637611 -0.116402
vn -0.440196 -0.897692 -0.019400
vn 0.266201 -0.893805 -0.360902
vn 0.959330 -0.236707 -0.153805
vn 0.771435 -0.462021 0.437520
vn 0.308615 -0.915044 0.259713
vn -0.761513 -0.637611 -0.116402
vn -0.052099 -0.883677 0.465188
vn -0.440196 -0.897692 -0.019400
vn 0.771435 -0.462021 0.437520
vn 0.959330 -0.236707 -0.153805
vn 0.943177 -0.139497 0.301593
vn 0.975700 0.183200 -0.120200
vn 0.943177 -0.139497 0.301593
vn 0.959330 -0.236707 -0.153805
vn -0.938752 -0.008700 0.344483
vn -0.983362 0.123095 0.133595
vn -0.974694 -0.145399 -0.169799
vn -0.986020 0.163503 0.032101
vn -0.983362 0.123095 0.133595
vn -0.938752 -0.008700 0.344483
vn 0.904045 0.119406 0.410420
vn 0.925939 0.020501 0.377116
vn 0.975700 0.183200 -0.120200
vn 0.975700 0.183200 -0.120200
vn 0.948806 0.261402 0.177301
vn 0.904045 0.119406 0.410420
vn 0.965511 0.256903 0.042300
vn 0.948806 0.261402 0.177301
vn 0.975700 0.183200 -0.120200
vn -0.898015 0.344306 -0.273904
vn -0.863835 0.368215 -0.343814
vn -0.990402 0.129200 -0.049100
vn 0.948806 0.261402 0.177301
vn 0.965511 0.256903 0.042300
vn 0.974225 0.223106 0.033301
vn 0.974225 0.223106 0.033301
vn 0.723696 0.351498 0.593897
vn 0.948806 0.261402 0.177301
vn -0.898015 0.344306 -0.273904
vn -0.347400 0.872301 0.344100
vn -0.518584 0.544083 -0.659579
vn -0.347400 0.872301 0.344100
vn -0.024199 0.982366 0.185394
vn -0.518584 0.544083 -0.659579
vn 0.723696 0.351498 0.593897
vn 0.974225 0.223106 0.033301
vn 0.449012 0.885924 -0.116303
vn 0.470393 -0.568792 0.674690
vn 0.308615 -0.915044 0.259713
vn 0.771435 -0.462021 0.437520
vn -0.440196 -0.897692 -0.019400
vn -0.632573 -0.771367 -0.069597
vn -0.641466 -0.743660 -0.188390
vn -0.723960 -0.338881 0.600867
vn -0.641466 -0.743660 -0.188390
vn -0.632573 -0.771367 -0.069597
vn -0.052099 -0.883677 0.465188
vn -0.632573 -0.771367 -0.069597
vn -0.440196 -0.897692 -0.019400
vn -0.052099 -0.883677 0.465188
vn -0.350106 -0.720313 0.598811
vn -0.632573 -0.771367 -0.069597
vn -0.632573 -0.771367 -0.069597
vn -0.350106 -0.720313 0.598811
vn -0.723960 -0.338881 0.600867
vn -0.950488 -0.286196 0.121098
vn -0.641466 -0.743660 -0.188390
vn -0.723960 -0.338881 0.600867
vn -0.950488 -0.286196 0.121098
vn -0.723960 -0.338881 0.600867
vn -0.938752 -0.008700 0.344483
vn 0.943177 -0.139497 0.301593
vn 0.925939 0.020501 0.377116
vn 0.697164 -0.008300 0.716863
vn -0.948185 0.026700 0.316595
vn -0.986020 0.163503 0.032101
vn -0.938752 -0.008700 0.344483
vn 0.925939 0.020501 0.377116
vn 0.904045 0.119406 0.410420
vn 0.697164 -0.008300 0.716863
vn 0.641104 0.051800 0.765704
vn 0.904045 0.119406 0.410420
vn 0.789310 0.292204 0.540007
vn 0.904045 0.119406 0.410420
vn 0.948806 0.261402 0.177301
vn 0.789310 0.292204 0.540007
vn -0.990402 0.129200 -0.049100
vn -0.863835 0.368215 -0.343814
vn -0.986020 0.163503 0.032101
vn 0.948806 0.261402 0.177301
vn 0.723696 0.351498 0.593897
vn 0.789310 0.292204 0.540007
vn -0.915901 0.233500 0.326500
vn -0.898015 0.344306 -0.273904
vn -0.990402 0.129200 -0.049100
vn -0.734390 0.618192 0.280196
vn -0.898015 0.344306 -0.273904
vn -0.915901 0.233500 0.326500
vn 0.641104 0.051800 0.765704
vn 0.789310 0.292204 0.540007
vn 0.095303 0.180605 0.978928
vn 0.424405 -0.326104 0.844711
vn -0.052099 -0.883677 0.465188
vn 0.470393 -0.568792 0.674690
vn -0.052099 -0.883677 0.465188
vn 0.424405 -0.326104 0.844711
vn 0.144399 -0.342397 0.928393
vn 0.470393 -0.568792 0.674690
vn 0.771435 -0.462021 0.437520
vn 0.424405 -0.326104 0.844711
vn -0.143303 -0.271106 0.951822
vn -0.723960 -0.338881 0.600867
vn -0.350106 -0.720313 0.598811
vn 0.943177 -0.139497 0.301593
vn 0.424405 -0.326104 0.844711
vn 0.771435 -0.462021 0.437520
vn -0.723960 -0.338881 0.600867
vn -0.143303 -0.271106 0.951822
vn -0.638486 -0.126397 0.759183
vn -0.659567 -0.137493 0.738963
vn -0.938752 -0.008700 0.344483
vn -0.723960 -0.338881 0.600867
vn -0.638486 -0.126397 0.759183
vn -0.659567 -0.137493 0.738963
vn -0.723960 -0.338881 0.600867
vn -0.659567 -0.137493 0.738963
vn -0.948185 0.026700 0.316595
vn -0.938752 -0.008700 0.344483
vn -0.948185 0.026700 0.316595
vn -0.659567 -0.137493 0.738963
vn -0.638486 -0.126397 0.759183
vn -0.915901 0.233500 0.326500
vn -0.990402 0.129200 -0.049100
vn -0.986020 0.163503 0.032101
vn 0.364720 0.385322 0.847647
vn 0.789310 0.292204 0.540007
vn 0.723696 0.351498 0.593897
vn 0.364720 0.385322 0.847647
vn 0.723696 0.351498 0.593897
vn 0.022700 0.212001 0.977006
vn -0.734390 0.618192 0.280196
vn -0.347400 0.872301 0.344100
vn -0.898015 0.344306 -0.273904
vn -0.347400 0.872301 0.344100
vn -0.734390 0.618192 0.280196
vn -0.516799 0.385900 0.764199
vn 0.723696 0.351498 0.593897
vn 0.449012 0.885924 -0.116303
vn -0.024199 0.982366 0.185394
vn 0.144399 -0.342397 0.928393
vn -0.350106 -0.720313 0.598811
vn -0.052099 -0.883677 0.465188
vn -0.350106 -0.720313 0.598811
vn 0.144399 -0.342397 0.928393
vn -0.143303 -0.271106 0.951822
vn 0.285511 -0.285911 0.914734
vn 0.144399 -0.342397 0.928393
vn 0.424405 -0.326104 0.844711
vn 0.285511 -0.285911 0.914734
vn 0.424405 -0.326104 0.844711
vn 0.943177 -0.139497 0.301593
vn 0.943177 -0.139497 0.301593
vn 0.752611 -0.154802 0.640010
vn 0.285511 -0.285911 0.914734
vn 0.943177 -0.139497 0.301593
vn 0.697164 -0.008300 0.716863
vn 0.752611 -0.154802 0.640010
vn 0.752611 -0.154802 0.640010
vn 0.697164 -0.008300 0.716863
vn 0.641104 0.051800 0.765704
vn 0.904045 0.119406 0.410420
vn 0.641104 0.051800 0.765704
vn 0.697164 -0.008300 0.716863
vn -0.820599 0.038600 0.570199
vn -0.948185 0.026700 0.316595
vn -0.638486 -0.126397 0.759183
vn -0.820599 0.038600 0.570199
vn -0.986020 0.163503 0.032101
vn -0.948185 0.026700 0.316595
vn -0.986020 0.163503 0.032101
vn -0.820599 0.038600 0.570199
vn -0.915901 0.233500 0.326500
vn -0.734390 0.618192 0.280196
vn -0.915901 0.233500 0.326500
vn -0.820599 0.038600 0.570199
vn 0.723696 0.351498 0.593897
vn -0.516799 0.385900 0.764199
vn 0.022700 0.212001 0.977006
vn -0.516799 0.385900 0.764199
vn 0.723696 0.351498 0.593897
vn -0.347400 0.872301 0.344100
vn -0.638486 -0.126397 0.759183
vn -0.143303 -0.271106 0.951822
vn -0.337000 -0.173400 0.925399
vn -0.143303 -0.271106 0.951822
vn 0.083003 -0.297109 0.951229
vn -0.337000 -0.173400 0.925399
vn 0.083003 -0.297109 0.951229
vn -0.143303 -0.271106 0.951822
vn 0.144399 -0.342397 0.928393
vn 0.083003 -0.297109 0.951229
vn -0.254497 -0.099999 0.961890
vn -0.337000 -0.173400 0.925399
vn 0.144399 -0.342397 0.928393
vn 0.285511 -0.285911 0.914734
vn 0.083003 -0.297109 0.951229
vn 0.083003 -0.297109 0.951229
vn 0.297113 -0.169707 0.939640
vn -0.254497 -0.099999 0.961890
vn -0.820599 0.038600 0.570199
vn -0.638486 -0.126397 0.759183
vn -0.337000 -0.173400 0.925399
vn -0.337000 -0.173400 0.925399
vn -0.254497 -0.099999 0.961890
vn -0.820599 0.038600 0.570199
vn 0.022700 0.212001 0.977006
vn -0.516799 0.385900 0.764199
vn -0.820599 0.038600 0.570199
vn 0.789310 0.292204 0.540007
vn 0.364720 0.385322 0.847647
vn 0.095303 0.180605 0.978928
vn 0.364720 0.385322 0.847647
vn 0.022700 0.212001 0.977006
vn 0.095303 0.180605 0.978928
vn -0.516799 0.385900 0.764199
vn -0.734390 0.618192 0.280196
vn -0.820599 0.038600 0.570199
vn 0.297113 -0.169707 0.939640
vn 0.083003 -0.297109 0.951229
vn 0.285511 -0.285911 0.914734
vn 0.297113 -0.169707 0.939640
vn 0.285511 -0.285911 0.914734
vn 0.752611 -0.154802 0.640010
vn 0.297113 -0.169707 0.939640
vn 0.752611 -0.154802 0.640010
vn 0.641104 0.051800 0.765704
vn 0.095303 0.180605 0.978928
vn -0.254497 -0.099999 0.961890
vn 0.297113 -0.169707 0.939640
vn 0.641104 0.051800 0.765704
vn 0.095303 0.180605 0.978928
vn 0.297113 -0.169707 0.939640
vn 0.095303 0.180605 0.978928
vn -0.820599 0.038600 0.570199
vn -0.254497 -0.099999 0.961890
vn -0.820599 0.038600 0.570199
vn 0.095303 0.180605 0.978928
vn 0.022700 0.212001 0.977006
vn 0.723696 0.351498 0.593897
vn -0.024199 0.982366 0.185394
vn -0.347400 0.872301 0.344100
s off
g Rock2:Rock_2
usemtl initialShadingGroup
f 1/1/1 2/2/2 3/3/3
f 4/4/4 5/5/5 3/3/6
f 3/3/7 5/5/8 6/6/9
f 3/3/10 6/6/11 1/1/12
f 3/3/13 7/7/14 8/8/15
f 7/7/16 3/3/17 2/2/18
f 9/9/19 4/4/20 3/3/21
f 10/10/22 1/1/23 6/6/24
f 11/11/25 5/5/26 4/4/27
f 11/11/28 12/12/29 5/5/30
f 13/13/31 14/14/32 6/6/33
f 9/9/34 3/3/35 15/15/36
f 9/9/37 11/11/38 4/4/39
f 6/6/40 14/14/41 10/10/42
f 1/1/43 10/10/44 2/2/45
f 16/16/46 17/17/47 14/14/48
f 13/13/49 16/16/50 14/14/51
f 5/5/52 12/12/53 18/18/54
f 5/5/55 18/18/56 6/6/57
f 13/13/58 6/6/59 18/18/60
f 16/16/61 13/13/62 19/19/63
f 20/20/64 21/21/65 7/7/66
f 20/20/67 7/7/68 2/2/69
f 15/22/70 3/3/71 8/8/72
f 8/8/73 7/7/74 15/22/75
f 20/20/76 10/10/77 14/14/78
f 10/10/79 20/20/80 2/2/81
f 15/15/82 22/23/83 9/9/84
f 23/24/85 9/9/86 22/23/87
f 24/25/88 16/16/89 25/26/90
f 26/27/91 18/18/92 12/12/93
f 13/13/94 26/27/95 19/28/96
f 13/13/97 18/18/98 26/27/99
f 7/7/100 21/29/101 27/30/102
f 27/30/103 28/31/104 7/7/105
f 29/32/106 30/33/107 20/20/108
f 20/20/109 30/33/110 21/21/111
f 15/22/112 7/7/113 28/31/114
f 28/34/115 22/23/116 15/15/117
f 29/32/118 20/20/119 14/14/120
f 22/23/121 31/35/122 23/24/123
f 17/17/124 29/32/125 14/14/126
f 9/9/127 23/24/128 11/11/129
f 32/36/130 11/11/131 23/24/132
f 11/11/133 32/36/134 12/12/135
f 30/33/136 33/37/137 21/21/138
f 22/23/139 28/34/140 34/38/141
f 29/32/142 17/17/143 30/33/144
f 31/35/145 32/36/146 23/24/147
f 16/16/148 35/39/149 25/26/150
f 36/40/151 26/27/152 12/12/153
f 19/19/154 35/39/155 16/16/156
f 19/28/157 26/27/158 37/41/159
f 21/29/160 33/42/161 38/43/162
f 39/44/163 28/31/164 27/30/165
f 39/45/166 34/38/167 28/46/168
f 22/23/169 34/38/170 40/47/171
f 31/35/172 41/48/173 32/36/174
f 17/17/175 42/49/176 30/33/177
f 43/50/178 42/49/179 44/51/180
f 17/17/181 24/25/182 42/49/183
f 16/16/184 24/25/185 17/17/186
f 35/39/187 24/25/188 25/26/189
f 32/36/190 45/52/191 12/12/192
f 12/12/193 45/52/194 36/40/195
f 36/40/196 37/41/197 26/27/198
f 35/39/199 19/19/200 46/53/201
f 37/41/202 46/54/203 19/28/204
f 47/55/205 33/56/206 48/57/207
f 33/42/208 47/58/209 38/43/210
f 38/43/211 27/30/212 21/29/213
f 30/33/214 49/59/215 33/37/216
f 38/43/217 47/58/218 27/30/219
f 49/59/220 30/33/221 43/50/222
f 42/49/223 43/50/224 30/33/225
f 40/47/226 31/35/227 22/23/228
f 41/48/229 31/35/230 40/47/231
f 50/60/232 44/51/233 42/49/234
f 42/49/235 51/61/236 50/60/237
f 24/25/238 51/61/239 42/49/240
f 45/52/241 32/36/242 52/62/243
f 51/61/244 24/25/245 35/39/246
f 35/39/247 53/63/248 51/61/249
f 45/52/250 54/64/251 36/40/252
f 54/64/253 37/41/254 36/40/255
f 53/63/256 35/39/257 46/53/258
f 48/57/259 33/56/260 49/65/261
f 27/30/262 55/66/263 39/44/264
f 56/67/265 39/45/266 55/68/267
f 47/58/268 55/66/269 27/30/270
f 47/58/271 57/69/272 55/66/273
f 55/68/274 57/70/275 56/67/276
f 34/38/277 39/45/278 56/67/279
f 34/38/280 56/67/281 40/47/282
f 43/50/283 44/51/284 58/71/285
f 59/72/286 41/48/287 40/47/288
f 44/51/289 50/60/290 58/71/291
f 60/73/292 50/60/293 61/74/294
f 50/60/295 51/61/296 61/74/297
f 52/62/298 32/36/299 41/48/300
f 51/61/301 53/63/302 61/74/303
f 62/75/304 45/52/305 52/62/306
f 63/76/307 45/52/308 62/75/309
f 60/77/310 61/78/311 64/79/312
f 65/80/313 47/55/314 48/57/315
f 47/55/316 65/80/317 66/81/318
f 48/57/319 49/65/320 65/80/321
f 67/82/322 56/67/323 57/83/324
f 43/84/325 65/80/326 49/65/327
f 56/67/328 67/82/329 68/85/330
f 69/86/331 40/47/332 56/67/333
f 68/85/334 69/86/335 56/67/336
f 69/86/337 59/72/338 40/47/339
f 59/72/340 69/86/341 68/85/342
f 62/75/343 52/62/344 41/48/345
f 70/87/346 61/78/347 53/88/348
f 70/87/349 53/88/350 71/89/351
f 63/76/352 54/64/353 45/52/354
f 54/90/355 63/91/356 72/92/357
f 53/88/358 46/93/359 37/94/360
f 66/81/361 57/83/362 47/55/363
f 57/83/364 66/81/365 67/82/366
f 73/95/367 66/81/368 65/80/369
f 73/95/370 65/80/371 43/84/372
f 43/84/373 74/96/374 73/95/375
f 43/50/376 58/71/377 74/97/378
f 74/97/379 58/71/380 60/73/381
f 50/60/382 60/73/383 58/71/384
f 75/98/385 59/72/386 68/85/387
f 75/98/388 41/48/389 59/72/390
f 41/48/391 75/98/392 62/75/393
f 63/91/394 62/75/395 75/98/396
f 53/88/397 72/92/398 71/89/399
f 72/92/400 53/88/401 54/90/402
f 68/85/403 67/82/404 76/99/405
f 67/82/406 77/100/407 76/99/408
f 77/100/409 67/82/410 66/81/411
f 77/100/412 78/101/413 76/99/414
f 66/81/415 73/95/416 77/100/417
f 77/100/418 79/102/419 78/101/420
f 75/98/421 68/85/422 76/99/423
f 76/99/424 78/101/425 75/98/426
f 71/89/427 72/92/428 75/98/429
f 61/78/430 70/87/431 64/79/432
f 70/87/433 71/89/434 64/79/435
f 72/92/436 63/91/437 75/98/438
f 79/102/439 77/100/440 73/95/441
f 79/102/442 73/95/443 74/96/444
f 79/102/445 74/96/446 60/77/447
f 64/79/448 78/101/449 79/102/450
f 60/77/451 64/79/452 79/102/453
f 64/79/454 75/98/455 78/101/456
f 75/98/457 64/79/458 71/89/459
f 53/88/460 37/94/461 54/90/462
