# Blender v2.78 (sub 0) OBJ File: 'Rock.blend'
# www.blender.org
mtllib Rock5.mtl
o Icosphere_Icosphere.001
v -0.703692 0.381358 -0.804410
v -0.444871 0.427855 0.267917
v 0.575022 0.412372 -0.102039
v -0.017660 0.089491 -1.002138
v -0.790967 -0.341942 -0.594924
v -1.114668 -0.234872 -0.232201
v 1.019566 -0.153571 0.145889
v -0.956681 0.380490 0.000450
v 0.878995 0.223682 0.048097
v 1.105650 0.077095 -0.020376
v -0.879863 0.464981 -0.601829
v -0.616884 0.512134 -0.539138
v -0.457083 -0.232852 0.252588
v 0.854925 0.030916 0.359029
v 1.177739 -0.077087 -0.257907
v 0.287642 -0.419142 0.037234
v 0.305372 -0.556208 -0.271936
v 0.568020 0.420992 -0.496977
v 0.126676 0.231757 0.416642
v -0.511069 -0.394942 -0.616297
v -0.067386 -0.480868 0.003280
v -0.070954 -0.244011 0.230751
v 0.899104 0.250431 -0.153536
v -0.296256 0.265799 0.364478
v -0.451114 0.040624 -1.081037
v -0.313021 0.600013 0.013078
v 0.240771 0.554869 -0.212424
v -0.307509 -0.291078 -0.726465
v 0.999892 0.306686 -0.625192
v 0.913335 -0.214571 -0.504962
v -1.203690 0.073889 -0.330761
v -0.091728 0.634998 -0.361359
v -0.053309 -0.641976 -0.313288
v -0.509368 -0.539736 0.011477
v -0.014998 0.397216 -0.903179
v 0.567971 0.134939 -0.815891
v 0.336665 -0.109357 0.301955
v 1.038662 0.093018 -0.774038
v 0.412551 0.351117 -0.832977
v 0.857521 0.350338 -0.781459
v -0.203132 0.507382 -0.693515
v -1.133157 0.097120 -0.033140
v -0.676736 0.488263 -0.112434
v 1.179635 0.111474 -0.353605
v -0.963433 0.258017 -0.785199
v -0.628320 -0.590219 -0.230730
v -1.115575 0.321062 -0.735114
v -0.743977 -0.000685 -0.850720
v -1.119283 0.254270 -0.374256
v -1.040474 -0.093075 0.194512
v 0.835495 -0.429855 0.026330
v -0.735977 -0.288601 0.245684
v -0.618898 0.041225 0.391679
v 0.500460 0.274532 0.310773
v 0.973864 0.183688 0.179028
v 0.258804 0.371072 0.268691
v 0.323586 0.448738 -0.596868
v 0.742071 -0.371504 0.236590
v 0.618898 0.041225 0.391679
v 0.077430 0.591928 0.078107
v 0.906148 0.321109 -0.396878
v -0.826643 0.163320 0.380059
v 0.551301 -0.175366 -0.629511
v 0.679849 -0.486723 -0.480920
v -0.263490 -0.684747 -0.497518
v -0.971690 -0.376056 -0.014117
v -0.309440 -0.166936 0.434641
v 0.547748 -0.473633 0.019568
v 0.156609 -0.288106 -0.605631
vt 0.7656 0.5810
vt 0.7640 0.6369
vt 0.7070 0.6346
vt 0.2682 0.5174
vt 0.1946 0.4632
vt 0.2586 0.4413
vt 0.7466 0.4681
vt 0.7876 0.5357
vt 0.4598 0.5513
vt 0.5379 0.6294
vt 0.4809 0.6986
vt 0.6143 0.6631
vt 0.6552 0.5660
vt 0.8342 0.5305
vt 0.7958 0.6096
vt 0.6822 0.7429
vt 0.4357 0.8805
vt 0.9647 0.6235
vt 0.8878 0.6615
vt 0.9504 0.5087
vt 0.9863 0.5321
vt 0.1584 0.4544
vt 0.2002 0.3291
vt 0.7294 0.8248
vt 0.8433 0.6367
vt 0.8017 0.3380
vt 0.7469 0.3704
vt 0.8197 0.2679
vt 0.9048 0.0941
vt 0.9857 0.3059
vt 0.3661 0.5396
vt 0.3620 0.6403
vt 0.3359 0.5540
vt 0.9420 0.8187
vt 0.8889 0.8649
vt 0.7311 0.5821
vt 0.7193 0.5484
vt 0.8163 0.6600
vt 0.8426 0.6887
vt 0.8638 0.4507
vt 0.8822 0.5578
vt 0.5862 0.4607
vt 0.4827 0.4811
vt 0.5054 0.3133
vt 0.8953 0.3453
vt 0.9970 0.3411
vt 0.3395 0.2942
vt 0.5286 0.1027
vt 0.3176 0.3330
vt 0.2308 0.2615
vt 0.2711 0.3737
vt 0.0854 0.2596
vt 0.0849 0.1343
vt 0.2689 0.6223
vt 0.2093 0.6661
vt 0.2285 0.5778
vt 0.3224 0.8806
vt 0.7015 0.4811
vt 0.1866 0.5752
vt 0.2830 0.7069
vt 0.4210 0.6560
vt 0.9459 0.7329
vt 0.3007 0.4926
vt 0.0858 0.8577
vt 0.0845 0.6638
vt 0.1594 0.6089
vt 0.0564 0.3753
vt 0.4351 0.3812
vt 0.7831 0.3983
vt 0.6783 0.4656
vt 0.0759 0.5321
vt 0.9007 0.7117
vt 0.6750 0.3679
vt 0.3177 0.4200
vt 0.3667 0.4619
vt 0.2652 0.5843
vt 0.2082 0.8793
vn 0.5217 0.8151 0.2518
vn -0.7415 -0.3884 -0.5471
vn 0.9328 -0.0981 0.3468
vn 0.0539 0.6773 0.7337
vn 0.4624 0.8126 0.3548
vn 0.2943 0.8893 0.3501
vn 0.7302 -0.3150 -0.6062
vn 0.3884 0.9214 0.0132
vn 0.4445 0.7659 0.4645
vn 0.2791 -0.6311 -0.7237
vn 0.1917 -0.6673 -0.7197
vn -0.1982 -0.8488 -0.4902
vn 0.1986 0.9549 -0.2208
vn 0.8035 -0.5423 -0.2456
vn -0.1408 -0.8413 0.5220
vn 0.0080 -0.6602 -0.7510
vn 0.1102 -0.8838 0.4547
vn -0.4017 0.9063 -0.1310
vn 0.1741 0.8983 -0.4035
vn 0.2029 0.9679 0.1486
vn 0.2225 0.9657 0.1337
vn 0.2638 0.9641 0.0290
vn 0.2774 -0.3181 -0.9066
vn -0.1079 0.1623 0.9808
vn 0.4068 -0.6150 -0.6755
vn -0.0076 -0.9383 0.3458
vn 0.1059 -0.6254 0.7731
vn -0.3070 -0.7824 0.5419
vn 0.1259 -0.8819 0.4544
vn 0.8478 0.0631 0.5266
vn -0.3754 0.6950 -0.6133
vn 0.2317 0.9728 0.0062
vn 0.8119 0.0529 0.5814
vn -0.3301 -0.8785 0.3453
vn -0.1701 -0.5759 -0.7996
vn -0.1832 0.9826 0.0293
vn -0.3872 0.8444 0.3701
vn 0.1686 -0.7304 -0.6619
vn 0.4484 0.8937 0.0116
vn 0.1652 0.9264 -0.3385
vn -0.2346 0.9718 0.0215
vn -0.9504 -0.1972 0.2406
vn 0.2693 0.9618 0.0498
vn 0.3098 0.9315 -0.1904
vn 0.1376 0.3021 -0.9433
vn -0.5431 -0.6709 -0.5049
vn -0.1299 0.5652 -0.8147
vn -0.0288 0.1608 0.9866
vn 0.1050 -0.6880 0.7181
vn -0.1359 0.1333 -0.9817
vn 0.3660 0.9265 0.0876
vn 0.7430 -0.6511 -0.1550
vn -0.0713 0.8432 0.5328
vn 0.6387 0.7694 0.0108
vn 0.2044 0.4117 0.8881
vn 0.0917 0.0358 -0.9951
vn 0.2053 -0.6719 -0.7117
vn -0.2707 0.9601 -0.0703
vn 0.3190 0.6081 0.7269
vn -0.3390 -0.7516 -0.5658
vn 0.1150 0.0042 -0.9934
vn 0.5787 0.7937 0.1875
vn 0.7097 0.4848 -0.5111
vn 0.2137 -0.1906 0.9581
vn 0.2299 -0.5102 -0.8288
vn 0.0622 -0.7304 0.6802
vn 0.0047 0.9954 0.0958
vn -0.8426 0.5014 0.1967
vn -0.7940 0.2669 0.5462
vn -0.0964 -0.3700 0.9240
vn -0.3424 -0.5161 -0.7851
vn 0.0245 0.6574 -0.7531
vn 0.1822 -0.8302 0.5269
vn 0.0442 0.9290 -0.3675
vn -0.6557 -0.3930 -0.6447
vn 0.2336 0.9606 0.1507
vn -0.1630 -0.9054 0.3920
vn -0.5432 0.8186 0.1865
vn 0.4411 -0.1973 0.8755
vn 0.0852 -0.6550 0.7508
vn 0.5739 0.7918 0.2091
vn -0.8756 0.4513 0.1723
vn -0.5735 0.8065 0.1434
vn -0.5843 -0.8002 -0.1350
vn -0.1101 0.9396 -0.3241
vn 0.6047 -0.7651 -0.2214
vn 0.1495 0.9844 -0.0924
vn 0.8741 0.3742 -0.3095
vn -0.7411 -0.3870 -0.5486
vn -0.8758 -0.2831 0.3909
vn 0.1952 0.9403 0.2788
vn -0.1479 -0.5685 -0.8093
vn -0.0237 0.7383 0.6740
vn 0.1663 0.0417 -0.9852
vn -0.0467 -0.9600 0.2762
vn -0.0545 -0.9718 0.2293
vn 0.2070 -0.9773 0.0460
vn -0.3586 0.7520 0.5531
vn 0.0513 -0.6914 0.7207
vn -0.2821 -0.3968 0.8735
vn -0.4878 -0.5917 0.6418
vn -0.9412 -0.3164 0.1188
vn -0.2386 0.9260 0.2925
vn 0.0264 -0.6204 0.7839
vn 0.1429 0.3883 0.9104
vn -0.1392 0.9055 -0.4009
vn -0.3184 -0.2869 0.9035
vn -0.0605 0.9030 -0.4254
vn -0.0643 0.4667 0.8821
vn 0.6371 -0.6217 0.4556
vn 0.0082 0.1086 0.9941
vn -0.1939 -0.5093 -0.8385
vn 0.2691 0.2927 -0.9175
vn -0.0952 0.8435 -0.5287
vn 0.1343 0.6588 0.7402
vn -0.3317 -0.2809 0.9006
vn 0.1543 0.9322 -0.3273
vn 0.0426 0.5400 0.8406
vn 0.0960 -0.5163 -0.8510
vn -0.6241 0.1586 -0.7651
vn 0.1677 -0.8976 0.4076
vn 0.1351 -0.9376 0.3203
vn -0.5664 -0.7764 -0.2763
vn -0.7613 0.4150 0.4982
vn 0.9685 0.1049 0.2259
vn 0.7769 -0.6001 0.1907
vn 0.2251 -0.4709 -0.8530
vn -0.4677 -0.7052 -0.5330
vn 0.1875 -0.9624 0.1964
vn -0.0934 -0.3745 0.9225
vn 0.1450 -0.9770 0.1562
vn -0.8967 0.4369 0.0716
vn -0.2673 -0.6012 0.7531
vn 0.2373 -0.9704 -0.0454
usemtl Material.001
s off
f 10/1/1 61/2/1 23/3/1
f 31/4/2 5/5/2 6/6/2
f 7/7/3 15/8/3 10/1/3
f 2/9/4 56/10/4 60/11/4
f 3/12/5 54/13/5 23/3/5
f 3/12/6 56/10/6 54/13/6
f 30/14/7 44/15/7 15/8/7
f 18/16/8 27/17/8 3/12/8
f 60/11/9 56/10/9 3/12/9
f 4/18/10 36/19/10 69/20/10
f 4/18/11 69/20/11 28/21/11
f 5/5/12 20/22/12 46/23/12
f 18/16/13 57/24/13 27/17/13
f 30/14/14 38/25/14 44/15/14
f 68/26/15 58/27/15 16/28/15
f 30/14/16 36/19/16 38/25/16
f 21/29/17 33/30/17 16/28/17
f 8/31/18 43/32/18 49/33/18
f 57/24/19 41/34/19 32/35/19
f 9/36/20 55/37/20 23/3/20
f 54/13/21 55/37/21 9/36/21
f 18/16/22 29/38/22 40/39/22
f 30/14/23 64/40/23 63/41/23
f 19/42/24 24/43/24 67/44/24
f 69/20/25 17/45/25 65/46/25
f 13/47/26 22/48/26 67/44/26
f 13/47/27 52/49/27 34/50/27
f 34/50/28 52/49/28 66/51/28
f 33/52/29 21/53/29 34/50/29
f 7/7/30 10/1/30 55/37/30
f 11/54/31 1/55/31 45/56/31
f 60/11/32 27/17/32 32/57/32
f 7/7/33 55/37/33 14/58/33
f 34/50/34 66/51/34 46/23/34
f 48/59/35 20/22/35 5/5/35
f 11/54/36 43/32/36 12/60/36
f 2/9/37 26/61/37 43/32/37
f 63/41/38 17/45/38 69/20/38
f 3/12/39 23/3/39 18/16/39
f 57/24/40 35/62/40 41/34/40
f 32/57/41 12/60/41 43/32/41
f 31/4/42 6/6/42 42/63/42
f 29/38/43 18/16/43 61/2/43
f 57/24/44 32/35/44 27/17/44
f 35/64/45 4/65/45 25/66/45
f 20/22/46 65/67/46 46/23/46
f 1/55/47 35/64/47 25/66/47
f 24/43/48 53/68/48 67/44/48
f 21/53/49 22/48/49 34/50/49
f 1/55/50 48/59/50 45/56/50
f 3/12/51 27/17/51 60/11/51
f 64/40/52 30/14/52 51/69/52
f 2/9/53 60/11/53 26/61/53
f 10/1/54 23/3/54 55/37/54
f 19/42/55 59/70/55 54/13/55
f 40/39/56 38/25/56 36/19/56
f 4/65/57 28/71/57 25/66/57
f 26/61/58 32/57/58 43/32/58
f 54/13/59 14/58/59 55/37/59
f 25/66/60 28/71/60 48/59/60
f 40/39/61 36/19/61 39/72/61
f 29/38/62 61/2/62 44/15/62
f 40/39/63 29/38/63 38/25/63
f 37/73/64 19/42/64 67/44/64
f 30/14/65 63/41/65 36/19/65
f 7/7/66 14/58/66 59/70/66
f 32/57/67 26/61/67 60/11/67
f 42/63/68 8/31/68 49/33/68
f 42/63/69 50/74/69 62/75/69
f 19/42/70 37/73/70 59/70/70
f 63/41/71 64/40/71 17/45/71
f 11/54/72 45/56/72 47/76/72
f 37/73/73 67/44/73 22/48/73
f 39/72/74 57/24/74 40/39/74
f 45/56/75 48/59/75 5/5/75
f 54/13/76 9/36/76 23/3/76
f 17/45/77 68/26/77 16/28/77
f 11/54/78 49/33/78 43/32/78
f 58/27/79 7/7/79 59/70/79
f 16/28/80 37/73/80 22/48/80
f 10/1/81 44/15/81 61/2/81
f 42/63/82 49/33/82 31/4/82
f 11/54/83 47/76/83 49/33/83
f 66/51/84 6/6/84 46/23/84
f 41/77/85 12/60/85 32/57/85
f 30/14/86 15/8/86 51/69/86
f 18/16/87 40/39/87 57/24/87
f 44/15/88 38/25/88 29/38/88
f 31/4/89 45/56/89 5/5/89
f 6/6/90 66/51/90 42/63/90
f 61/2/91 18/16/91 23/3/91
f 48/59/92 28/71/92 20/22/92
f 24/43/93 19/42/93 56/10/93
f 39/72/94 36/19/94 35/62/94
f 33/52/95 46/23/95 65/67/95
f 33/52/96 34/50/96 46/23/96
f 17/45/97 64/40/97 51/69/97
f 2/9/98 8/31/98 62/75/98
f 22/48/99 21/29/99 16/28/99
f 50/74/100 53/68/100 62/75/100
f 50/74/101 66/51/101 52/49/101
f 42/63/102 66/51/102 50/74/102
f 2/9/103 43/32/103 8/31/103
f 22/48/104 13/47/104 34/50/104
f 54/13/105 59/70/105 14/58/105
f 1/55/106 12/60/106 41/77/106
f 52/49/107 67/44/107 53/68/107
f 11/54/108 12/60/108 1/55/108
f 24/43/109 2/9/109 62/75/109
f 58/27/110 51/69/110 7/7/110
f 24/43/111 62/75/111 53/68/111
f 65/67/112 20/22/112 28/71/112
f 4/18/113 35/62/113 36/19/113
f 1/55/114 41/77/114 35/64/114
f 19/42/115 54/13/115 56/10/115
f 53/68/116 50/74/116 52/49/116
f 57/24/117 39/72/117 35/62/117
f 24/43/118 56/10/118 2/9/118
f 63/41/119 69/20/119 36/19/119
f 1/55/120 25/66/120 48/59/120
f 16/28/121 33/30/121 17/45/121
f 58/27/122 68/26/122 51/69/122
f 5/5/123 46/23/123 6/6/123
f 42/63/124 62/75/124 8/31/124
f 44/15/125 10/1/125 15/8/125
f 7/7/126 51/69/126 15/8/126
f 28/21/127 69/20/127 65/46/127
f 31/4/128 47/76/128 45/56/128
f 52/49/129 13/47/129 67/44/129
f 58/27/130 59/70/130 37/73/130
f 68/26/131 17/45/131 51/69/131
f 47/76/132 31/4/132 49/33/132
f 37/73/133 16/28/133 58/27/133
f 17/45/134 33/30/134 65/46/134
