# This file uses centimeters as units for non-parametric coordinates.

mtllib Rock3.mtl
g default
v 0.322644 0.571538 -1.372800
v 0.283144 -0.120162 -1.164200
v 0.105244 0.116938 -1.236000
v 0.480744 -0.139962 -1.205500
v -0.626056 0.611038 -1.126900
v -0.052856 0.670338 -1.304800
v 0.471244 0.868038 -1.304400
v 0.204044 1.019838 -0.889400
v 0.599344 -0.377062 -1.015900
v -0.428356 0.133138 -1.027700
v 0.775244 0.571538 -0.869600
v 0.362144 -0.693062 -0.790500
v -0.230756 -0.436362 -0.895300
v 0.243544 -0.495662 -0.853200
v -0.882956 0.472738 -1.020200
v -0.724856 0.079738 -0.928900
v -1.138156 0.670338 -0.434800
v 0.895744 1.026138 -0.499900
v 0.144744 -0.831662 -0.705900
v -0.290056 -0.653762 -0.829700
v -0.408656 -0.714462 -0.672000
v -0.710156 -0.594462 -0.553400
v -0.250456 0.906038 -0.553400
v -0.914756 -0.298062 -0.177900
v 0.973344 -0.416662 -0.355700
v 1.173744 0.650638 -0.217400
v -0.052856 1.097538 -0.296500
v -0.566756 -0.834462 -0.217400
v 0.263344 -0.924762 -0.355700
v -1.231056 0.077438 0.118600
v -0.956356 0.769138 -0.177900
v 0.836544 -0.990062 0.118600
v 1.132944 -0.586362 -0.079100
v 1.140944 1.026138 -0.217400
v -0.724856 -0.910062 -0.019800
v -0.961955 -0.728362 0.019800
v 1.182244 -0.317862 0.000000
v -0.349356 1.151138 0.019800
v 0.283144 1.031638 -0.098800
v 0.579544 -1.125662 0.039500
v -0.171456 -1.173762 0.296500
v -0.381656 -1.009562 0.138300
v -0.939556 -0.772362 -0.098800
v -0.823656 0.983538 0.118600
v 1.034144 0.808738 0.181200
v 0.619144 1.117338 0.454600
v -0.507456 -0.634862 0.415000
v 1.214944 -0.594462 0.336000
v 0.983944 0.373938 0.177900
v -0.953856 0.393638 0.316200
v -0.759456 0.808738 0.474300
v 0.876044 -0.405062 0.652200
v -0.981756 -0.499962 0.237200
v -1.021256 -0.303162 0.612700
v 0.976444 -0.218962 0.573100
v 0.045944 1.131438 0.395300
v 0.302844 1.132938 0.494100
v -0.290056 -0.811862 0.745300
v 0.421444 -0.218962 0.979800
v 0.045944 -0.159662 1.280800
v -0.971856 0.314638 1.067200
v -0.948256 0.018138 1.047500
v 0.902544 0.393638 0.592900
v -0.744556 0.665538 0.988200
v -0.784156 -0.354862 0.988200
v 0.941644 0.136738 0.731300
v -0.854356 0.709838 0.830100
v 0.599344 0.966838 0.628700
v -0.388856 0.711438 0.948700
v 0.184344 0.749838 1.126500
v 0.105244 0.947038 0.648700
v 0.658644 0.294838 1.001600
v 0.362144 0.828438 1.046700
v -0.546956 -0.436362 1.254200
v 0.006444 0.287938 1.363700
v -0.882956 0.294838 1.227300
v -0.151656 0.393638 1.212800
v -0.645756 0.077438 1.344700
v -0.448156 -0.120162 1.469700
vt 0.520600 0.944100
vt 0.543100 0.821200
vt 0.566900 0.867900
vt 0.512100 0.817200
vt 0.689400 0.959000
vt 0.583600 0.967300
vt 0.485400 0.990800
vt 0.902700 0.109800
vt 0.923900 0.214600
vt 0.799800 0.104700
vt 0.491900 0.764000
vt 0.665300 0.870600
vt 0.410900 0.918600
vt 0.845500 0.029200
vt 0.544700 0.702900
vt 0.641700 0.766200
vt 0.562100 0.740500
vt 0.738300 0.935800
vt 0.719300 0.863000
vt 0.939500 0.266800
vt 0.859600 0.351700
vt 0.684000 0.030100
vt 0.588800 0.680700
vt 0.655900 0.729800
vt 0.685000 0.712600
vt 0.741600 0.731700
vt 0.796200 0.203500
vt 0.970100 0.559600
vt 0.886400 0.529700
vt 0.993800 0.425600
vt 0.976000 0.352000
vt 0.362100 0.729100
vt 0.285400 0.894800
vt 0.731300 0.191400
vt 0.568600 0.547700
vt 0.511700 0.627900
vt 0.519800 0.476600
vt 0.498000 0.678600
vt 0.451700 0.605900
vt 0.593500 0.494200
vt 0.802600 0.481500
vt 0.800900 0.344500
vt 0.321300 0.983300
vt 0.326800 0.612100
vt 0.308800 0.692800
vt 0.276200 0.947800
vt 0.505200 0.429700
vt 0.870700 0.611300
vt 0.283300 0.727100
vt 0.706500 0.259200
vt 0.673300 0.154900
vt 0.362900 0.592800
vt 0.405600 0.479700
vt 0.447600 0.461900
vt 0.548100 0.413700
vt 0.893300 0.613700
vt 0.736700 0.336200
vt 0.211800 0.908500
vt 0.560400 0.155300
vt 0.536700 0.394000
vt 0.521400 0.376600
vt 0.417300 0.381800
vt 0.239500 0.660000
vt 0.220000 0.836100
vt 0.741600 0.434200
vt 0.683500 0.376300
vt 0.135900 0.972200
vt 0.197000 0.577400
vt 0.486800 0.327000
vt 0.817000 0.590100
vt 0.740500 0.577000
vt 0.175100 0.722500
vt 0.619500 0.234900
vt 0.583200 0.206000
vt 0.343800 0.409700
vt 0.184900 0.469800
vt 0.189500 0.383200
vt 0.428900 0.273500
vt 0.630600 0.501300
vt 0.649900 0.547200
vt 0.146800 0.830100
vt 0.604100 0.427800
vt 0.165700 0.598000
vt 0.346300 0.285500
vt 0.133100 0.780200
vt 0.637300 0.421400
vt 0.107100 0.937500
vt 0.568200 0.368000
vt 0.489700 0.295100
vt 0.571500 0.259000
vt 0.525800 0.181200
vt 0.671500 0.614800
vt 0.104800 0.558000
vt 0.088600 0.484500
vt 0.065600 0.810300
vt 0.485500 0.258400
vt 0.282400 0.310400
vt 0.620700 0.653500
vt 0.113800 0.361100
vt 0.601000 0.513100
vt 0.024700 0.386700
vt 0.023800 0.281000
vt 0.089500 0.329500
vt 0.005800 0.418000
vt 0.025600 0.908300
vt 0.579900 0.570000
vt 0.043300 0.220200
vt 0.251700 0.282900
vt 0.188400 0.293000
vt 0.159800 0.251700
vt 0.122300 0.206000
vn 0.010600 -0.126403 -0.991922
vn -0.190598 -0.450696 -0.872092
vn -0.261101 -0.282001 -0.923202
vn -0.190598 -0.450696 -0.872092
vn 0.010600 -0.126403 -0.991922
vn 0.643120 -0.131304 -0.754424
vn -0.406100 0.611700 -0.678900
vn -0.291003 0.392705 -0.872410
vn -0.261101 -0.282001 -0.923202
vn -0.291003 0.392705 -0.872410
vn 0.543887 0.465989 -0.697883
vn 0.010600 -0.126403 -0.991922
vn -0.291003 0.392705 -0.872410
vn 0.010600 -0.126403 -0.991922
vn -0.261101 -0.282001 -0.923202
vn -0.291003 0.392705 -0.872410
vn -0.406100 0.611700 -0.678900
vn -0.163601 0.939004 -0.302501
vn 0.643120 -0.131304 -0.754424
vn 0.708784 -0.442490 -0.549388
vn -0.190598 -0.450696 -0.872092
vn 0.543887 0.465989 -0.697883
vn 0.643120 -0.131304 -0.754424
vn 0.010600 -0.126403 -0.991922
vn -0.306589 -0.347687 -0.886068
vn -0.406100 0.611700 -0.678900
vn -0.261101 -0.282001 -0.923202
vn 0.643120 -0.131304 -0.754424
vn 0.847512 -0.016900 -0.530507
vn 0.708784 -0.442490 -0.549388
vn -0.163601 0.939004 -0.302501
vn 0.543887 0.465989 -0.697883
vn -0.291003 0.392705 -0.872410
vn 0.708784 -0.442490 -0.549388
vn 0.144201 -0.703407 -0.696007
vn -0.190598 -0.450696 -0.872092
vn -0.246900 -0.398300 -0.883401
vn -0.306589 -0.347687 -0.886068
vn -0.190598 -0.450696 -0.872092
vn -0.246900 -0.398300 -0.883401
vn -0.190598 -0.450696 -0.872092
vn -0.042899 -0.496490 -0.866982
vn -0.190598 -0.450696 -0.872092
vn -0.306589 -0.347687 -0.886068
vn -0.261101 -0.282001 -0.923202
vn -0.693314 -0.134803 -0.707915
vn -0.306589 -0.347687 -0.886068
vn -0.773153 -0.345779 -0.531668
vn 0.847512 -0.016900 -0.530507
vn 0.643120 -0.131304 -0.754424
vn 0.543887 0.465989 -0.697883
vn -0.693314 -0.134803 -0.707915
vn -0.406100 0.611700 -0.678900
vn -0.306589 -0.347687 -0.886068
vn -0.406100 0.611700 -0.678900
vn -0.693314 -0.134803 -0.707915
vn -0.831979 0.440889 -0.336791
vn 0.339507 0.899320 -0.275606
vn 0.543887 0.465989 -0.697883
vn -0.163601 0.939004 -0.302501
vn -0.042899 -0.496490 -0.866982
vn -0.078703 -0.870732 -0.485418
vn -0.077199 -0.489491 -0.868584
vn -0.077199 -0.489491 -0.868584
vn -0.246900 -0.398300 -0.883401
vn -0.042899 -0.496490 -0.866982
vn -0.042899 -0.496490 -0.866982
vn -0.190598 -0.450696 -0.872092
vn 0.144201 -0.703407 -0.696007
vn -0.383196 -0.617193 -0.687192
vn -0.306589 -0.347687 -0.886068
vn -0.246900 -0.398300 -0.883401
vn -0.383196 -0.617193 -0.687192
vn -0.757864 -0.404381 -0.511976
vn -0.773153 -0.345779 -0.531668
vn -0.306589 -0.347687 -0.886068
vn -0.383196 -0.617193 -0.687192
vn -0.773153 -0.345779 -0.531668
vn -0.340491 0.891777 -0.297992
vn -0.163601 0.939004 -0.302501
vn -0.406100 0.611700 -0.678900
vn -0.383196 -0.617193 -0.687192
vn -0.077199 -0.489491 -0.868584
vn -0.078703 -0.870732 -0.485418
vn -0.078703 -0.870732 -0.485418
vn -0.042899 -0.496490 -0.866982
vn 0.144201 -0.703407 -0.696007
vn -0.077199 -0.489491 -0.868584
vn -0.383196 -0.617193 -0.687192
vn -0.246900 -0.398300 -0.883401
vn -0.757864 -0.404381 -0.511976
vn -0.869702 -0.246701 -0.427501
vn -0.773153 -0.345779 -0.531668
vn -0.831979 0.440889 -0.336791
vn -0.693314 -0.134803 -0.707915
vn -0.773153 -0.345779 -0.531668
vn 0.768216 -0.348207 -0.537211
vn 0.847512 -0.016900 -0.530507
vn 0.963586 -0.001300 -0.267396
vn -0.831979 0.440889 -0.336791
vn -0.340491 0.891777 -0.297992
vn -0.406100 0.611700 -0.678900
vn -0.340491 0.891777 -0.297992
vn -0.043501 0.992226 -0.116603
vn -0.163601 0.939004 -0.302501
vn -0.383196 -0.617193 -0.687192
vn -0.078703 -0.870732 -0.485418
vn -0.240397 -0.901889 -0.358896
vn 0.144201 -0.703407 -0.696007
vn 0.207094 -0.865977 -0.455188
vn -0.078703 -0.870732 -0.485418
vn -0.757864 -0.404381 -0.511976
vn -0.383196 -0.617193 -0.687192
vn -0.240397 -0.901889 -0.358896
vn 0.144201 -0.703407 -0.696007
vn 0.708784 -0.442490 -0.549388
vn 0.207094 -0.865977 -0.455188
vn 0.768216 -0.348207 -0.537211
vn 0.207094 -0.865977 -0.455188
vn 0.708784 -0.442490 -0.549388
vn 0.847512 -0.016900 -0.530507
vn 0.768216 -0.348207 -0.537211
vn 0.708784 -0.442490 -0.549388
vn -0.869702 -0.246701 -0.427501
vn -0.995532 -0.059402 -0.073402
vn -0.773153 -0.345779 -0.531668
vn -0.340491 0.891777 -0.297992
vn -0.831979 0.440889 -0.336791
vn -0.703395 0.710795 0.002200
vn 0.543887 0.465989 -0.697883
vn 0.339507 0.899320 -0.275606
vn 0.847512 -0.016900 -0.530507
vn -0.043501 0.992226 -0.116603
vn 0.339507 0.899320 -0.275606
vn -0.163601 0.939004 -0.302501
vn 0.545879 -0.815969 -0.190293
vn 0.768216 -0.348207 -0.537211
vn 0.786018 -0.474211 -0.396609
vn -0.773153 -0.345779 -0.531668
vn -0.995532 -0.059402 -0.073402
vn -0.831979 0.440889 -0.336791
vn 0.339507 0.899320 -0.275606
vn 0.963586 -0.001300 -0.267396
vn 0.847512 -0.016900 -0.530507
vn 0.339507 0.899320 -0.275606
vn 0.699516 0.709616 0.084402
vn 0.963586 -0.001300 -0.267396
vn -0.338514 -0.940640 0.024601
vn -0.240397 -0.901889 -0.358896
vn 0.207094 -0.865977 -0.455188
vn -0.240397 -0.901889 -0.358896
vn -0.078703 -0.870732 -0.485418
vn 0.207094 -0.865977 -0.455188
vn 0.545879 -0.815969 -0.190293
vn 0.207094 -0.865977 -0.455188
vn 0.768216 -0.348207 -0.537211
vn -0.869702 -0.246701 -0.427501
vn -0.757864 -0.404381 -0.511976
vn -0.908271 -0.418286 -0.009000
vn 0.992909 0.103601 0.058301
vn 0.786018 -0.474211 -0.396609
vn 0.768216 -0.348207 -0.537211
vn 0.963586 -0.001300 -0.267396
vn 0.992909 0.103601 0.058301
vn 0.768216 -0.348207 -0.537211
vn -0.995532 -0.059402 -0.073402
vn -0.703395 0.710795 0.002200
vn -0.831979 0.440889 -0.336791
vn -0.340491 0.891777 -0.297992
vn -0.703395 0.710795 0.002200
vn -0.234591 0.970665 0.052698
vn -0.340491 0.891777 -0.297992
vn -0.234591 0.970665 0.052698
vn -0.043501 0.992226 -0.116603
vn 0.058500 0.995802 -0.070400
vn 0.339507 0.899320 -0.275606
vn -0.043501 0.992226 -0.116603
vn 0.225809 -0.914938 0.334514
vn 0.070601 -0.870315 0.487408
vn 0.207094 -0.865977 -0.455188
vn 0.207094 -0.865977 -0.455188
vn -0.401993 -0.913785 -0.058299
vn -0.338514 -0.940640 0.024601
vn -0.338514 -0.940640 0.024601
vn -0.476113 -0.751120 -0.457312
vn -0.240397 -0.901889 -0.358896
vn -0.476113 -0.751120 -0.457312
vn -0.757864 -0.404381 -0.511976
vn -0.240397 -0.901889 -0.358896
vn -0.476113 -0.751120 -0.457312
vn -0.908271 -0.418286 -0.009000
vn -0.757864 -0.404381 -0.511976
vn -0.703395 0.710795 0.002200
vn -0.556029 0.822743 0.118006
vn -0.234591 0.970665 0.052698
vn 0.963586 -0.001300 -0.267396
vn 0.699516 0.709616 0.084402
vn 0.857085 0.244996 0.453192
vn -0.234591 0.970665 0.052698
vn 0.058500 0.995802 -0.070400
vn -0.043501 0.992226 -0.116603
vn 0.058500 0.995802 -0.070400
vn 0.224795 0.968979 0.102698
vn 0.339507 0.899320 -0.275606
vn 0.070601 -0.870315 0.487408
vn -0.401993 -0.913785 -0.058299
vn 0.207094 -0.865977 -0.455188
vn 0.207094 -0.865977 -0.455188
vn 0.545879 -0.815969 -0.190293
vn 0.225809 -0.914938 0.334514
vn -0.476113 -0.751120 -0.457312
vn -0.338514 -0.940640 0.024601
vn -0.908271 -0.418286 -0.009000
vn -0.578571 -0.729563 0.364682
vn -0.908271 -0.418286 -0.009000
vn -0.338514 -0.940640 0.024601
vn -0.338514 -0.940640 0.024601
vn -0.401993 -0.913785 -0.058299
vn -0.578571 -0.729563 0.364682
vn 0.786018 -0.474211 -0.396609
vn 0.851002 -0.357601 0.384601
vn 0.545879 -0.815969 -0.190293
vn 0.992909 0.103601 0.058301
vn 0.851002 -0.357601 0.384601
vn 0.786018 -0.474211 -0.396609
vn -0.908271 -0.418286 -0.009000
vn -0.995532 -0.059402 -0.073402
vn -0.869702 -0.246701 -0.427501
vn 0.947310 0.081401 0.309803
vn 0.992909 0.103601 0.058301
vn 0.963586 -0.001300 -0.267396
vn -0.995532 -0.059402 -0.073402
vn -0.881485 0.453592 0.131298
vn -0.703395 0.710795 0.002200
vn 0.857085 0.244996 0.453192
vn 0.947310 0.081401 0.309803
vn 0.963586 -0.001300 -0.267396
vn -0.881485 0.453592 0.131298
vn -0.708717 0.654515 0.263306
vn -0.703395 0.710795 0.002200
vn -0.556029 0.822743 0.118006
vn -0.708717 0.654515 0.263306
vn -0.234591 0.970665 0.052698
vn 0.339507 0.899320 -0.275606
vn 0.224795 0.968979 0.102698
vn 0.699516 0.709616 0.084402
vn 0.225809 -0.914938 0.334514
vn 0.545879 -0.815969 -0.190293
vn 0.328697 -0.590094 0.737392
vn -0.578571 -0.729563 0.364682
vn -0.725925 -0.591221 0.351412
vn -0.908271 -0.418286 -0.009000
vn -0.908271 -0.418286 -0.009000
vn -0.725925 -0.591221 0.351412
vn -0.995532 -0.059402 -0.073402
vn -0.995532 -0.059402 -0.073402
vn -0.725925 -0.591221 0.351412
vn -0.832161 -0.470878 0.292886
vn 0.992909 0.103601 0.058301
vn 0.933029 0.158905 0.322810
vn 0.851002 -0.357601 0.384601
vn 0.992909 0.103601 0.058301
vn 0.947310 0.081401 0.309803
vn 0.933029 0.158905 0.322810
vn -0.703395 0.710795 0.002200
vn -0.708717 0.654515 0.263306
vn -0.556029 0.822743 0.118006
vn -0.107104 0.961937 0.251410
vn 0.058500 0.995802 -0.070400
vn -0.234591 0.970665 0.052698
vn 0.224795 0.968979 0.102698
vn 0.058500 0.995802 -0.070400
vn -0.000500 0.959440 0.281912
vn 0.328697 -0.590094 0.737392
vn 0.070601 -0.870315 0.487408
vn 0.225809 -0.914938 0.334514
vn 0.070601 -0.870315 0.487408
vn -0.578571 -0.729563 0.364682
vn -0.401993 -0.913785 -0.058299
vn -0.031701 -0.825427 0.563618
vn 0.401094 -0.555492 0.728390
vn 0.402808 -0.481310 0.778516
vn 0.070601 -0.870315 0.487408
vn 0.328697 -0.590094 0.737392
vn 0.401094 -0.555492 0.728390
vn 0.328697 -0.590094 0.737392
vn 0.545879 -0.815969 -0.190293
vn 0.851002 -0.357601 0.384601
vn -0.832161 -0.470878 0.292886
vn -0.725925 -0.591221 0.351412
vn -0.578571 -0.729563 0.364682
vn -0.960572 0.191894 0.201194
vn -0.832161 -0.470878 0.292886
vn -0.779076 -0.296691 0.552283
vn -0.832161 -0.470878 0.292886
vn -0.960572 0.191894 0.201194
vn -0.995532 -0.059402 -0.073402
vn -0.881485 0.453592 0.131298
vn -0.995532 -0.059402 -0.073402
vn -0.960572 0.191894 0.201194
vn 0.947310 0.081401 0.309803
vn 0.857085 0.244996 0.453192
vn 0.834805 0.279702 0.474203
vn -0.234591 0.970665 0.052698
vn -0.708717 0.654515 0.263306
vn -0.157398 0.758990 0.631791
vn -0.000500 0.959440 0.281912
vn 0.058500 0.995802 -0.070400
vn -0.107104 0.961937 0.251410
vn 0.857085 0.244996 0.453192
vn 0.699516 0.709616 0.084402
vn 0.224795 0.968979 0.102698
vn 0.851002 -0.357601 0.384601
vn 0.933029 0.158905 0.322810
vn 0.328697 -0.590094 0.737392
vn -0.578571 -0.729563 0.364682
vn -0.654080 -0.709679 0.261792
vn -0.832161 -0.470878 0.292886
vn 0.933029 0.158905 0.322810
vn 0.947310 0.081401 0.309803
vn 0.798710 -0.051501 0.599508
vn 0.798710 -0.051501 0.599508
vn 0.947310 0.081401 0.309803
vn 0.834805 0.279702 0.474203
vn -0.862997 0.488698 0.128100
vn -0.708717 0.654515 0.263306
vn -0.881485 0.453592 0.131298
vn 0.834805 0.279702 0.474203
vn 0.857085 0.244996 0.453192
vn 0.620596 0.529997 0.577896
vn -0.862997 0.488698 0.128100
vn -0.157398 0.758990 0.631791
vn -0.708717 0.654515 0.263306
vn -0.183798 0.823190 0.537193
vn -0.234591 0.970665 0.052698
vn -0.157398 0.758990 0.631791
vn 0.015100 0.667002 0.744903
vn -0.000500 0.959440 0.281912
vn -0.201897 0.852087 0.482893
vn 0.857085 0.244996 0.453192
vn 0.224795 0.968979 0.102698
vn 0.620596 0.529997 0.577896
vn -0.201897 0.852087 0.482893
vn -0.000500 0.959440 0.281912
vn -0.107104 0.961937 0.251410
vn 0.224795 0.968979 0.102698
vn -0.000500 0.959440 0.281912
vn 0.620596 0.529997 0.577896
vn -0.031701 -0.825427 0.563618
vn -0.578571 -0.729563 0.364682
vn 0.070601 -0.870315 0.487408
vn 0.401094 -0.555492 0.728390
vn -0.031701 -0.825427 0.563618
vn 0.070601 -0.870315 0.487408
vn -0.031701 -0.825427 0.563618
vn -0.654080 -0.709679 0.261792
vn -0.578571 -0.729563 0.364682
vn -0.654080 -0.709679 0.261792
vn -0.779076 -0.296691 0.552283
vn -0.832161 -0.470878 0.292886
vn 0.401094 -0.555492 0.728390
vn 0.328697 -0.590094 0.737392
vn 0.798710 -0.051501 0.599508
vn 0.798710 -0.051501 0.599508
vn 0.328697 -0.590094 0.737392
vn 0.933029 0.158905 0.322810
vn -0.862997 0.488698 0.128100
vn -0.881485 0.453592 0.131298
vn -0.960572 0.191894 0.201194
vn -0.000500 0.959440 0.281912
vn 0.015100 0.667002 0.744903
vn 0.620596 0.529997 0.577896
vn 0.627218 0.099803 0.772423
vn 0.401094 -0.555492 0.728390
vn 0.798710 -0.051501 0.599508
vn 0.401094 -0.555492 0.728390
vn 0.627218 0.099803 0.772423
vn 0.402808 -0.481310 0.778516
vn 0.834805 0.279702 0.474203
vn 0.627218 0.099803 0.772423
vn 0.798710 -0.051501 0.599508
vn -0.107104 0.961937 0.251410
vn -0.234591 0.970665 0.052698
vn -0.183798 0.823190 0.537193
vn -0.183798 0.823190 0.537193
vn -0.201897 0.852087 0.482893
vn -0.107104 0.961937 0.251410
vn 0.015100 0.667002 0.744903
vn -0.201897 0.852087 0.482893
vn -0.183798 0.823190 0.537193
vn 0.627218 0.099803 0.772423
vn 0.834805 0.279702 0.474203
vn 0.620596 0.529997 0.577896
vn 0.620596 0.529997 0.577896
vn 0.015100 0.667002 0.744903
vn 0.592192 0.430294 0.681290
vn -0.031701 -0.825427 0.563618
vn -0.249199 -0.653097 0.715097
vn -0.654080 -0.709679 0.261792
vn -0.031701 -0.825427 0.563618
vn 0.402808 -0.481310 0.778516
vn -0.249199 -0.653097 0.715097
vn -0.654080 -0.709679 0.261792
vn -0.249199 -0.653097 0.715097
vn -0.779076 -0.296691 0.552283
vn 0.242694 0.205095 0.948175
vn 0.402808 -0.481310 0.778516
vn 0.627218 0.099803 0.772423
vn -0.862997 0.488698 0.128100
vn -0.960572 0.191894 0.201194
vn -0.549573 0.304285 0.778062
vn -0.549573 0.304285 0.778062
vn -0.157398 0.758990 0.631791
vn -0.862997 0.488698 0.128100
vn 0.015100 0.667002 0.744903
vn -0.183798 0.823190 0.537193
vn -0.176407 0.551022 0.815632
vn 0.242694 0.205095 0.948175
vn 0.015100 0.667002 0.744903
vn -0.176407 0.551022 0.815632
vn 0.015100 0.667002 0.744903
vn 0.627218 0.099803 0.772423
vn 0.592192 0.430294 0.681290
vn 0.242694 0.205095 0.948175
vn 0.627218 0.099803 0.772423
vn 0.015100 0.667002 0.744903
vn 0.627218 0.099803 0.772423
vn 0.620596 0.529997 0.577896
vn 0.592192 0.430294 0.681290
vn -0.960572 0.191894 0.201194
vn -0.779076 -0.296691 0.552283
vn -0.549573 0.304285 0.778062
vn -0.340308 0.272307 0.900022
vn -0.549573 0.304285 0.778062
vn -0.779076 -0.296691 0.552283
vn -0.176407 0.551022 0.815632
vn -0.183798 0.823190 0.537193
vn -0.157398 0.758990 0.631791
vn -0.249199 -0.653097 0.715097
vn 0.402808 -0.481310 0.778516
vn 0.031600 -0.173003 0.984414
vn -0.779076 -0.296691 0.552283
vn -0.249199 -0.653097 0.715097
vn -0.340308 0.272307 0.900022
vn -0.249199 -0.653097 0.715097
vn 0.031600 -0.173003 0.984414
vn -0.340308 0.272307 0.900022
vn 0.031600 -0.173003 0.984414
vn 0.402808 -0.481310 0.778516
vn 0.242694 0.205095 0.948175
vn -0.340308 0.272307 0.900022
vn -0.157398 0.758990 0.631791
vn -0.549573 0.304285 0.778062
vn -0.176407 0.551022 0.815632
vn -0.157398 0.758990 0.631791
vn -0.340308 0.272307 0.900022
vn -0.176407 0.551022 0.815632
vn -0.340308 0.272307 0.900022
vn 0.242694 0.205095 0.948175
vn 0.031600 -0.173003 0.984414
vn 0.242694 0.205095 0.948175
vn -0.340308 0.272307 0.900022
s off
g Rock3:Rock_3
usemtl initialShadingGroup
f 1/1/1 2/2/2 3/3/3
f 2/2/4 1/1/5 4/4/6
f 5/5/7 6/6/8 3/3/9
f 6/6/10 7/7/11 1/1/12
f 6/6/13 1/1/14 3/3/15
f 6/8/16 5/9/17 8/10/18
f 4/4/19 9/11/20 2/2/21
f 7/7/22 4/4/23 1/1/24
f 10/12/25 5/5/26 3/3/27
f 4/4/28 11/13/29 9/11/30
f 8/10/31 7/14/32 6/8/33
f 9/11/34 12/15/35 2/2/36
f 13/16/37 10/12/38 2/2/39
f 13/16/40 2/2/41 14/17/42
f 2/2/43 10/12/44 3/3/45
f 15/18/46 10/12/47 16/19/48
f 11/13/49 4/4/50 7/7/51
f 15/18/52 5/5/53 10/12/54
f 5/9/55 15/20/56 17/21/57
f 18/22/58 7/14/59 8/10/60
f 14/17/61 19/23/62 20/24/63
f 20/24/64 13/16/65 14/17/66
f 14/17/67 2/2/68 12/15/69
f 21/25/70 10/12/71 13/16/72
f 21/25/73 22/26/74 16/19/75
f 10/12/76 21/25/77 16/19/78
f 23/27/79 8/10/80 5/9/81
f 21/25/82 20/24/83 19/23/84
f 19/23/85 14/17/86 12/15/87
f 20/24/88 21/25/89 13/16/90
f 22/28/91 24/29/92 16/30/93
f 17/21/94 15/31/95 16/30/96
f 25/32/97 11/13/98 26/33/99
f 17/21/100 23/27/101 5/9/102
f 23/27/103 27/34/104 8/10/105
f 21/35/106 19/36/107 28/37/108
f 12/38/109 29/39/110 19/36/111
f 22/40/112 21/35/113 28/37/114
f 12/38/115 9/11/116 29/39/117
f 25/32/118 29/39/119 9/11/120
f 11/13/121 25/32/122 9/11/123
f 24/29/124 30/41/125 16/30/126
f 23/27/127 17/21/128 31/42/129
f 7/7/130 18/43/131 11/13/132
f 27/34/133 18/22/134 8/10/135
f 32/44/136 25/32/137 33/45/138
f 16/30/139 30/41/140 17/21/141
f 18/43/142 26/33/143 11/13/144
f 18/43/145 34/46/146 26/33/147
f 35/47/148 28/37/149 29/39/150
f 28/37/151 19/36/152 29/39/153
f 32/44/154 29/39/155 25/32/156
f 24/29/157 22/28/158 36/48/159
f 37/49/160 33/45/161 25/32/162
f 26/33/163 37/49/164 25/32/165
f 30/41/166 31/42/167 17/21/168
f 23/27/169 31/42/170 38/50/171
f 23/27/172 38/50/173 27/34/174
f 39/51/175 18/22/176 27/34/177
f 40/52/178 41/53/179 29/39/180
f 29/39/181 42/54/182 35/47/183
f 35/47/184 43/55/185 28/37/186
f 43/55/187 22/40/188 28/37/189
f 43/56/190 36/48/191 22/28/192
f 31/42/193 44/57/194 38/50/195
f 26/33/196 34/46/197 45/58/198
f 38/50/199 39/51/200 27/34/201
f 39/51/202 46/59/203 18/22/204
f 41/53/205 42/54/206 29/39/207
f 29/39/208 32/44/209 40/52/210
f 43/60/211 35/47/212 36/61/213
f 47/62/214 36/61/215 35/47/216
f 35/47/217 42/54/218 47/62/219
f 33/45/220 48/63/221 32/44/222
f 37/49/223 48/63/224 33/45/225
f 36/48/226 30/41/227 24/29/228
f 49/64/229 37/49/230 26/33/231
f 30/41/232 50/65/233 31/42/234
f 45/58/235 49/64/236 26/33/237
f 50/65/238 51/66/239 31/42/240
f 44/57/241 51/66/242 38/50/243
f 18/43/244 46/67/245 34/46/246
f 40/52/247 32/44/248 52/68/249
f 47/62/250 53/69/251 36/61/252
f 36/48/253 53/70/254 30/41/255
f 30/41/256 53/70/257 54/71/258
f 37/49/259 55/72/260 48/63/261
f 37/49/262 49/64/263 55/72/264
f 31/42/265 51/66/266 44/57/267
f 56/73/268 39/51/269 38/50/270
f 46/59/271 39/51/272 57/74/273
f 52/68/274 41/53/275 40/52/276
f 41/53/277 47/62/278 42/54/279
f 58/75/280 59/76/281 60/77/282
f 41/53/283 52/68/284 59/76/285
f 52/68/286 32/44/287 48/63/288
f 54/78/289 53/69/290 47/62/291
f 61/79/292 54/71/293 62/80/294
f 54/71/295 61/79/296 30/41/297
f 50/65/298 30/41/299 61/79/300
f 49/64/301 45/58/302 63/81/303
f 38/50/304 51/66/305 64/82/306
f 57/74/307 39/51/308 56/73/309
f 45/58/310 34/46/311 46/67/312
f 48/63/313 55/83/314 52/68/315
f 47/62/316 65/84/317 54/78/318
f 55/72/319 49/64/320 66/85/321
f 66/85/322 49/64/323 63/81/324
f 67/86/325 51/66/326 50/65/327
f 63/81/328 45/58/329 68/87/330
f 67/86/331 64/82/332 51/66/333
f 69/88/334 38/50/335 64/82/336
f 70/89/337 57/74/338 71/90/339
f 45/58/340 46/67/341 68/87/342
f 71/90/343 57/74/344 56/73/345
f 46/59/346 57/74/347 68/91/348
f 58/75/349 47/62/350 41/53/351
f 59/76/352 58/75/353 41/53/354
f 58/75/355 65/84/356 47/62/357
f 65/92/358 62/80/359 54/71/360
f 59/76/361 52/68/362 66/93/363
f 66/93/364 52/68/365 55/83/366
f 67/86/367 50/65/368 61/79/369
f 57/74/370 70/89/371 68/91/372
f 72/94/373 59/76/374 66/93/375
f 59/76/376 72/94/377 60/77/378
f 63/81/379 72/95/380 66/85/381
f 56/73/382 38/50/383 69/88/384
f 69/88/385 71/90/386 56/73/387
f 70/89/388 71/90/389 69/88/390
f 72/95/391 63/81/392 68/87/393
f 68/91/394 70/89/395 73/96/396
f 58/75/397 74/97/398 65/84/399
f 58/75/400 60/77/401 74/97/402
f 65/92/403 74/98/404 62/80/405
f 75/99/406 60/77/407 72/94/408
f 67/86/409 61/79/410 76/100/411
f 76/100/412 64/82/413 67/86/414
f 70/101/415 69/102/416 77/103/417
f 75/99/418 70/101/419 77/103/420
f 70/101/421 72/94/422 73/104/423
f 75/99/424 72/94/425 70/101/426
f 72/95/427 68/87/428 73/105/429
f 61/79/430 62/80/431 76/100/432
f 78/106/433 76/100/434 62/80/435
f 77/103/436 69/102/437 64/107/438
f 74/108/439 60/77/440 79/109/441
f 62/80/442 74/98/443 78/106/444
f 74/108/445 79/109/446 78/110/447
f 79/109/448 60/77/449 75/99/450
f 78/110/451 64/107/452 76/111/453
f 77/103/454 64/107/455 78/110/456
f 77/103/457 78/110/458 75/99/459
f 79/109/460 75/99/461 78/110/462
