# This file uses centimeters as units for non-parametric coordinates.

g default
v -0.055855 3.248353 -0.167048
v -0.055855 3.248353 0.167048
v -0.055855 4.297784 0.167048
v -0.055855 4.297784 -0.167048
v -0.689596 3.185935 -0.167048
v -0.689596 3.185935 0.167048
v -0.894331 4.215202 0.167048
v -0.894331 4.215202 -0.167048
v -1.298986 3.001078 -0.167048
v -1.298986 3.001078 0.167048
v -1.700586 3.970627 0.167048
v -1.700586 3.970627 -0.167048
v -1.860601 2.700889 -0.167048
v -1.860601 2.700889 0.167048
v -2.443634 3.573459 0.167048
v -2.443634 3.573459 -0.167048
v -2.352861 2.296901 -0.167048
v -2.352861 2.296901 0.167048
v -3.094921 3.038961 0.167048
v -3.094921 3.038961 -0.167048
v -2.756849 1.804641 -0.167048
v -2.756849 1.804641 0.167048
v -3.629419 2.387674 0.167048
v -3.629419 2.387674 -0.167048
v -3.057039 1.243025 -0.167048
v -3.057039 1.243025 0.167048
v -4.026587 1.644625 0.167048
v -4.026587 1.644625 -0.167048
v -3.241894 0.633636 -0.167048
v -3.241894 0.633636 0.167048
v -4.271162 0.838370 0.167048
v -4.271162 0.838370 -0.167048
v -3.304314 -0.000107 -0.167048
v -3.304314 -0.000107 0.167048
v -4.353745 -0.000107 0.167048
v -4.353745 -0.000107 -0.167048
v -3.241894 -0.633850 -0.167048
v -3.241894 -0.633850 0.167048
v -4.271162 -0.838584 0.167048
v -4.271162 -0.838584 -0.167048
v -3.057039 -1.243238 -0.167048
v -3.057039 -1.243238 0.167048
v -4.026587 -1.644839 0.167048
v -4.026587 -1.644839 -0.167048
v -2.756849 -1.804854 -0.167048
v -2.756849 -1.804854 0.167048
v -3.629419 -2.387887 0.167048
v -3.629419 -2.387887 -0.167048
v -2.352861 -2.297114 -0.167048
v -2.352861 -2.297114 0.167048
v -3.094921 -3.039175 0.167048
v -3.094921 -3.039175 -0.167048
v -1.860601 -2.701102 -0.167048
v -1.860601 -2.701102 0.167048
v -2.443634 -3.573673 0.167048
v -2.443634 -3.573673 -0.167048
v -1.298986 -3.001292 -0.167048
v -1.298986 -3.001292 0.167048
v -1.700586 -3.970841 0.167048
v -1.700586 -3.970841 -0.167048
v -0.689596 -3.186148 -0.167048
v -0.689596 -3.186148 0.167048
v -0.894331 -4.215415 0.167048
v -0.894331 -4.215415 -0.167048
v -0.055855 -3.248566 -0.167048
v -0.055855 -3.248566 0.167048
v -0.055855 -4.297998 0.167048
v -0.055855 -4.297998 -0.167048
v 0.577890 -3.186148 -0.167048
v 0.577890 -3.186148 0.167048
v 0.782623 -4.215415 0.167048
v 0.782623 -4.215415 -0.167048
v 1.187279 -3.001292 -0.167048
v 1.187279 -3.001292 0.167048
v 1.588879 -3.970840 0.167048
v 1.588879 -3.970840 -0.167048
v 1.748894 -2.701102 -0.167048
v 1.748894 -2.701102 0.167048
v 2.331927 -3.573673 0.167048
v 2.331927 -3.573673 -0.167048
v 2.241155 -2.297114 -0.167048
v 2.241155 -2.297114 0.167048
v 2.983213 -3.039174 0.167048
v 2.983213 -3.039174 -0.167048
v 2.645142 -1.804854 -0.167048
v 2.645142 -1.804854 0.167048
v 3.517713 -2.387887 0.167048
v 3.517713 -2.387887 -0.167048
v 2.945332 -1.243238 -0.167048
v 2.945332 -1.243238 0.167048
v 3.914880 -1.644838 0.167048
v 3.914880 -1.644838 -0.167048
v 3.130187 -0.633850 -0.167048
v 3.130187 -0.633850 0.167048
v 4.159454 -0.838583 0.167048
v 4.159454 -0.838583 -0.167048
v 3.192606 -0.000106 -0.167048
v 3.192606 -0.000106 0.167048
v 4.242037 -0.000106 0.167048
v 4.242037 -0.000106 -0.167048
v 3.130187 0.633637 -0.167048
v 3.130187 0.633637 0.167048
v 4.159454 0.838371 0.167048
v 4.159454 0.838371 -0.167048
v 2.945332 1.243025 -0.167048
v 2.945332 1.243025 0.167048
v 3.914880 1.644625 0.167048
v 3.914880 1.644625 -0.167048
v 2.645142 1.804641 -0.167048
v 2.645142 1.804641 0.167048
v 3.517713 2.387674 0.167048
v 3.517713 2.387674 -0.167048
v 2.241153 2.296901 -0.167048
v 2.241153 2.296901 0.167048
v 2.983213 3.038962 0.167048
v 2.983213 3.038962 -0.167048
v 1.748894 2.700889 -0.167048
v 1.748894 2.700889 0.167048
v 2.331926 3.573459 0.167048
v 2.331926 3.573459 -0.167048
v 1.187279 3.001078 -0.167048
v 1.187279 3.001078 0.167048
v 1.588877 3.970627 0.167048
v 1.588877 3.970627 -0.167048
v 0.577888 3.185935 -0.167048
v 0.577888 3.185935 0.167048
v 0.782623 4.215202 0.167048
v 0.782623 4.215202 -0.167048
vt 0.500000 0.873139
vt 0.572061 0.866042
vt 0.572061 0.866042
vt 0.500000 0.873139
vt 0.595341 0.983077
vt 0.500000 0.992467
vt 0.595341 0.983077
vt 0.500000 0.992467
vt 0.641353 0.845022
vt 0.641353 0.845022
vt 0.687018 0.955267
vt 0.687018 0.955267
vt 0.705212 0.810889
vt 0.705212 0.810889
vt 0.771507 0.910106
vt 0.771507 0.910106
vt 0.761186 0.764952
vt 0.761186 0.764952
vt 0.845563 0.849330
vt 0.845563 0.849330
vt 0.807122 0.708979
vt 0.807122 0.708979
vt 0.906340 0.775274
vt 0.906340 0.775274
vt 0.841256 0.645119
vt 0.841256 0.645119
vt 0.951500 0.690784
vt 0.951500 0.690784
vt 0.862275 0.575827
vt 0.862275 0.575827
vt 0.979310 0.599107
vt 0.979310 0.599107
vt 0.869373 0.503766
vt 0.869373 0.503766
vt 0.988701 0.503766
vt 0.988701 0.503766
vt 0.862275 0.431705
vt 0.862275 0.431705
vt 0.979310 0.408426
vt 0.979310 0.408426
vt 0.841256 0.362414
vt 0.841256 0.362414
vt 0.951500 0.316749
vt 0.951500 0.316749
vt 0.807122 0.298554
vt 0.807122 0.298554
vt 0.906340 0.232259
vt 0.906340 0.232259
vt 0.761186 0.242580
vt 0.761186 0.242580
vt 0.845563 0.158203
vt 0.845563 0.158203
vt 0.705212 0.196644
vt 0.705212 0.196644
vt 0.771507 0.097427
vt 0.771507 0.097427
vt 0.641353 0.162511
vt 0.641353 0.162511
vt 0.687018 0.052266
vt 0.687018 0.052266
vt 0.572061 0.141491
vt 0.572061 0.141491
vt 0.595341 0.024456
vt 0.595341 0.024456
vt 0.500000 0.134394
vt 0.500000 0.134394
vt 0.500000 0.015066
vt 0.500000 0.015066
vt 0.427939 0.141491
vt 0.427939 0.141491
vt 0.404659 0.024456
vt 0.404659 0.024456
vt 0.358647 0.162511
vt 0.358647 0.162511
vt 0.312982 0.052266
vt 0.312982 0.052266
vt 0.294787 0.196644
vt 0.294787 0.196644
vt 0.228492 0.097427
vt 0.228492 0.097427
vt 0.238814 0.242580
vt 0.238814 0.242580
vt 0.154436 0.158203
vt 0.154436 0.158203
vt 0.192878 0.298554
vt 0.192878 0.298554
vt 0.093660 0.232259
vt 0.093660 0.232259
vt 0.158744 0.362414
vt 0.158744 0.362414
vt 0.048500 0.316749
vt 0.048500 0.316749
vt 0.137725 0.431705
vt 0.137725 0.431705
vt 0.020690 0.408426
vt 0.020690 0.408426
vt 0.130627 0.503767
vt 0.130627 0.503767
vt 0.011299 0.503767
vt 0.011299 0.503767
vt 0.137725 0.575828
vt 0.137725 0.575828
vt 0.020690 0.599107
vt 0.020690 0.599107
vt 0.158744 0.645119
vt 0.158744 0.645119
vt 0.048500 0.690784
vt 0.048500 0.690784
vt 0.192878 0.708979
vt 0.192878 0.708979
vt 0.093660 0.775274
vt 0.093660 0.775274
vt 0.238814 0.764953
vt 0.238814 0.764953
vt 0.154437 0.849330
vt 0.154437 0.849330
vt 0.294787 0.810889
vt 0.294787 0.810889
vt 0.228493 0.910106
vt 0.228493 0.910106
vt 0.358647 0.845022
vt 0.358647 0.845022
vt 0.312982 0.955267
vt 0.312982 0.955267
vt 0.427939 0.866042
vt 0.427939 0.866042
vt 0.404659 0.983077
vt 0.404659 0.983077
vn 0.000000 -0.269857 -0.962900
vn 0.052647 -0.264672 0.962900
vn 0.052647 -0.264672 -0.962900
vn 0.000000 -0.269857 0.962900
vn -0.065237 0.327971 0.942433
vn 0.000000 0.334397 0.942433
vn -0.065237 0.327971 -0.942433
vn -0.000000 0.334396 -0.942433
vn 0.103270 -0.249316 0.962900
vn 0.103270 -0.249316 -0.962900
vn -0.127968 0.308942 0.942433
vn -0.127968 0.308942 -0.942433
vn 0.149925 -0.224378 0.962900
vn 0.149925 -0.224378 -0.962900
vn -0.185781 0.278041 0.942432
vn -0.185781 0.278041 -0.942432
vn 0.190818 -0.190818 0.962900
vn 0.190818 -0.190818 -0.962900
vn -0.236454 0.236454 0.942432
vn -0.236454 0.236454 -0.942433
vn 0.224378 -0.149925 0.962900
vn 0.224378 -0.149925 -0.962900
vn -0.278041 0.185781 0.942432
vn -0.278041 0.185781 -0.942432
vn 0.249316 -0.103270 0.962900
vn 0.249316 -0.103270 -0.962900
vn -0.308942 0.127968 0.942433
vn -0.308942 0.127968 -0.942433
vn 0.264672 -0.052647 0.962900
vn 0.264672 -0.052647 -0.962900
vn -0.327971 0.065238 0.942433
vn -0.327971 0.065238 -0.942433
vn 0.269857 0.000000 0.962900
vn 0.269857 -0.000000 -0.962900
vn -0.334396 0.000000 0.942433
vn -0.334396 -0.000000 -0.942433
vn 0.264672 0.052647 0.962900
vn 0.264672 0.052647 -0.962900
vn -0.327971 -0.065238 0.942433
vn -0.327971 -0.065238 -0.942433
vn 0.249316 0.103270 0.962900
vn 0.249316 0.103270 -0.962900
vn -0.308942 -0.127968 0.942433
vn -0.308942 -0.127968 -0.942433
vn 0.224378 0.149925 0.962900
vn 0.224378 0.149925 -0.962900
vn -0.278041 -0.185781 0.942432
vn -0.278041 -0.185781 -0.942432
vn 0.190818 0.190818 0.962900
vn 0.190818 0.190818 -0.962900
vn -0.236454 -0.236454 0.942433
vn -0.236454 -0.236454 -0.942432
vn 0.149925 0.224378 0.962900
vn 0.149925 0.224378 -0.962900
vn -0.185781 -0.278040 0.942433
vn -0.185781 -0.278041 -0.942432
vn 0.103270 0.249316 0.962900
vn 0.103270 0.249316 -0.962900
vn -0.127968 -0.308942 0.942433
vn -0.127968 -0.308942 -0.942433
vn 0.052647 0.264672 0.962900
vn 0.052647 0.264672 -0.962900
vn -0.065237 -0.327971 0.942433
vn -0.065237 -0.327971 -0.942433
vn -0.000000 0.269858 0.962900
vn -0.000000 0.269857 -0.962900
vn 0.000000 -0.334397 0.942432
vn 0.000000 -0.334397 -0.942433
vn -0.052646 0.264672 0.962900
vn -0.052646 0.264672 -0.962900
vn 0.065237 -0.327971 0.942432
vn 0.065237 -0.327971 -0.942432
vn -0.103270 0.249316 0.962900
vn -0.103270 0.249316 -0.962900
vn 0.127968 -0.308942 0.942433
vn 0.127968 -0.308942 -0.942432
vn -0.149925 0.224379 0.962900
vn -0.149925 0.224378 -0.962900
vn 0.185781 -0.278041 0.942432
vn 0.185781 -0.278040 -0.942432
vn -0.190818 0.190818 0.962900
vn -0.190818 0.190818 -0.962900
vn 0.236454 -0.236454 0.942433
vn 0.236454 -0.236454 -0.942432
vn -0.224378 0.149925 0.962900
vn -0.224378 0.149925 -0.962900
vn 0.278041 -0.185781 0.942432
vn 0.278041 -0.185781 -0.942432
vn -0.249316 0.103270 0.962900
vn -0.249316 0.103270 -0.962900
vn 0.308942 -0.127968 0.942433
vn 0.308942 -0.127968 -0.942433
vn -0.264672 0.052647 0.962900
vn -0.264672 0.052647 -0.962900
vn 0.327971 -0.065237 0.942432
vn 0.327971 -0.065237 -0.942433
vn -0.269857 0.000000 0.962900
vn -0.269857 -0.000000 -0.962900
vn 0.334397 0.000000 0.942432
vn 0.334397 -0.000000 -0.942433
vn -0.264672 -0.052647 0.962900
vn -0.264672 -0.052647 -0.962900
vn 0.327971 0.065237 0.942432
vn 0.327971 0.065237 -0.942433
vn -0.249316 -0.103270 0.962900
vn -0.249316 -0.103270 -0.962900
vn 0.308942 0.127968 0.942432
vn 0.308942 0.127968 -0.942433
vn -0.224378 -0.149925 0.962900
vn -0.224378 -0.149925 -0.962900
vn 0.278040 0.185781 0.942433
vn 0.278040 0.185781 -0.942433
vn -0.190818 -0.190818 0.962900
vn -0.190818 -0.190818 -0.962900
vn 0.236454 0.236454 0.942433
vn 0.236454 0.236454 -0.942433
vn -0.149925 -0.224378 0.962900
vn -0.149925 -0.224378 -0.962900
vn 0.185781 0.278041 0.942432
vn 0.185781 0.278041 -0.942432
vn -0.103270 -0.249316 0.962900
vn -0.103270 -0.249316 -0.962900
vn 0.127968 0.308942 0.942433
vn 0.127968 0.308942 -0.942433
vn -0.052646 -0.264672 0.962900
vn -0.052647 -0.264673 -0.962900
vn 0.065237 0.327971 0.942433
vn 0.065238 0.327971 -0.942432
s 1
g polySurface3 polySurface1
f 1/1/1 6/2/2 5/3/3
f 1/1/1 2/4/4 6/2/2
f 2/4/4 7/5/5 6/2/2
f 2/4/4 3/6/6 7/5/5
f 3/6/6 8/7/7 7/5/5
f 3/6/6 4/8/8 8/7/7
f 4/8/8 5/3/3 8/7/7
f 4/8/8 1/1/1 5/3/3
f 5/3/3 10/9/9 9/10/10
f 5/3/3 6/2/2 10/9/9
f 6/2/2 11/11/11 10/9/9
f 6/2/2 7/5/5 11/11/11
f 7/5/5 12/12/12 11/11/11
f 7/5/5 8/7/7 12/12/12
f 8/7/7 9/10/10 12/12/12
f 8/7/7 5/3/3 9/10/10
f 9/10/10 14/13/13 13/14/14
f 9/10/10 10/9/9 14/13/13
f 10/9/9 15/15/15 14/13/13
f 10/9/9 11/11/11 15/15/15
f 11/11/11 16/16/16 15/15/15
f 11/11/11 12/12/12 16/16/16
f 12/12/12 13/14/14 16/16/16
f 12/12/12 9/10/10 13/14/14
f 13/14/14 18/17/17 17/18/18
f 13/14/14 14/13/13 18/17/17
f 14/13/13 19/19/19 18/17/17
f 14/13/13 15/15/15 19/19/19
f 15/15/15 20/20/20 19/19/19
f 15/15/15 16/16/16 20/20/20
f 16/16/16 17/18/18 20/20/20
f 16/16/16 13/14/14 17/18/18
f 17/18/18 22/21/21 21/22/22
f 17/18/18 18/17/17 22/21/21
f 18/17/17 23/23/23 22/21/21
f 18/17/17 19/19/19 23/23/23
f 19/19/19 24/24/24 23/23/23
f 19/19/19 20/20/20 24/24/24
f 20/20/20 21/22/22 24/24/24
f 20/20/20 17/18/18 21/22/22
f 21/22/22 26/25/25 25/26/26
f 21/22/22 22/21/21 26/25/25
f 22/21/21 27/27/27 26/25/25
f 22/21/21 23/23/23 27/27/27
f 23/23/23 28/28/28 27/27/27
f 23/23/23 24/24/24 28/28/28
f 24/24/24 25/26/26 28/28/28
f 24/24/24 21/22/22 25/26/26
f 25/26/26 30/29/29 29/30/30
f 25/26/26 26/25/25 30/29/29
f 26/25/25 31/31/31 30/29/29
f 26/25/25 27/27/27 31/31/31
f 27/27/27 32/32/32 31/31/31
f 27/27/27 28/28/28 32/32/32
f 28/28/28 29/30/30 32/32/32
f 28/28/28 25/26/26 29/30/30
f 29/30/30 34/33/33 33/34/34
f 29/30/30 30/29/29 34/33/33
f 30/29/29 35/35/35 34/33/33
f 30/29/29 31/31/31 35/35/35
f 31/31/31 36/36/36 35/35/35
f 31/31/31 32/32/32 36/36/36
f 32/32/32 33/34/34 36/36/36
f 32/32/32 29/30/30 33/34/34
f 33/34/34 38/37/37 37/38/38
f 33/34/34 34/33/33 38/37/37
f 34/33/33 39/39/39 38/37/37
f 34/33/33 35/35/35 39/39/39
f 35/35/35 40/40/40 39/39/39
f 35/35/35 36/36/36 40/40/40
f 36/36/36 37/38/38 40/40/40
f 36/36/36 33/34/34 37/38/38
f 37/38/38 42/41/41 41/42/42
f 37/38/38 38/37/37 42/41/41
f 38/37/37 43/43/43 42/41/41
f 38/37/37 39/39/39 43/43/43
f 39/39/39 44/44/44 43/43/43
f 39/39/39 40/40/40 44/44/44
f 40/40/40 41/42/42 44/44/44
f 40/40/40 37/38/38 41/42/42
f 41/42/42 46/45/45 45/46/46
f 41/42/42 42/41/41 46/45/45
f 42/41/41 47/47/47 46/45/45
f 42/41/41 43/43/43 47/47/47
f 43/43/43 48/48/48 47/47/47
f 43/43/43 44/44/44 48/48/48
f 44/44/44 45/46/46 48/48/48
f 44/44/44 41/42/42 45/46/46
f 45/46/46 50/49/49 49/50/50
f 45/46/46 46/45/45 50/49/49
f 46/45/45 51/51/51 50/49/49
f 46/45/45 47/47/47 51/51/51
f 47/47/47 52/52/52 51/51/51
f 47/47/47 48/48/48 52/52/52
f 48/48/48 49/50/50 52/52/52
f 48/48/48 45/46/46 49/50/50
f 49/50/50 54/53/53 53/54/54
f 49/50/50 50/49/49 54/53/53
f 50/49/49 55/55/55 54/53/53
f 50/49/49 51/51/51 55/55/55
f 51/51/51 56/56/56 55/55/55
f 51/51/51 52/52/52 56/56/56
f 52/52/52 53/54/54 56/56/56
f 52/52/52 49/50/50 53/54/54
f 53/54/54 58/57/57 57/58/58
f 53/54/54 54/53/53 58/57/57
f 54/53/53 59/59/59 58/57/57
f 54/53/53 55/55/55 59/59/59
f 55/55/55 60/60/60 59/59/59
f 55/55/55 56/56/56 60/60/60
f 56/56/56 57/58/58 60/60/60
f 56/56/56 53/54/54 57/58/58
f 57/58/58 62/61/61 61/62/62
f 57/58/58 58/57/57 62/61/61
f 58/57/57 63/63/63 62/61/61
f 58/57/57 59/59/59 63/63/63
f 59/59/59 64/64/64 63/63/63
f 59/59/59 60/60/60 64/64/64
f 60/60/60 61/62/62 64/64/64
f 60/60/60 57/58/58 61/62/62
f 61/62/62 66/65/65 65/66/66
f 61/62/62 62/61/61 66/65/65
f 62/61/61 67/67/67 66/65/65
f 62/61/61 63/63/63 67/67/67
f 63/63/63 68/68/68 67/67/67
f 63/63/63 64/64/64 68/68/68
f 64/64/64 65/66/66 68/68/68
f 64/64/64 61/62/62 65/66/66
f 65/66/66 70/69/69 69/70/70
f 65/66/66 66/65/65 70/69/69
f 66/65/65 71/71/71 70/69/69
f 66/65/65 67/67/67 71/71/71
f 67/67/67 72/72/72 71/71/71
f 67/67/67 68/68/68 72/72/72
f 68/68/68 69/70/70 72/72/72
f 68/68/68 65/66/66 69/70/70
f 69/70/70 74/73/73 73/74/74
f 69/70/70 70/69/69 74/73/73
f 70/69/69 75/75/75 74/73/73
f 70/69/69 71/71/71 75/75/75
f 71/71/71 76/76/76 75/75/75
f 71/71/71 72/72/72 76/76/76
f 72/72/72 73/74/74 76/76/76
f 72/72/72 69/70/70 73/74/74
f 73/74/74 78/77/77 77/78/78
f 73/74/74 74/73/73 78/77/77
f 74/73/73 79/79/79 78/77/77
f 74/73/73 75/75/75 79/79/79
f 75/75/75 80/80/80 79/79/79
f 75/75/75 76/76/76 80/80/80
f 76/76/76 77/78/78 80/80/80
f 76/76/76 73/74/74 77/78/78
f 77/78/78 82/81/81 81/82/82
f 77/78/78 78/77/77 82/81/81
f 78/77/77 83/83/83 82/81/81
f 78/77/77 79/79/79 83/83/83
f 79/79/79 84/84/84 83/83/83
f 79/79/79 80/80/80 84/84/84
f 80/80/80 81/82/82 84/84/84
f 80/80/80 77/78/78 81/82/82
f 81/82/82 86/85/85 85/86/86
f 81/82/82 82/81/81 86/85/85
f 82/81/81 87/87/87 86/85/85
f 82/81/81 83/83/83 87/87/87
f 83/83/83 88/88/88 87/87/87
f 83/83/83 84/84/84 88/88/88
f 84/84/84 85/86/86 88/88/88
f 84/84/84 81/82/82 85/86/86
f 85/86/86 90/89/89 89/90/90
f 85/86/86 86/85/85 90/89/89
f 86/85/85 91/91/91 90/89/89
f 86/85/85 87/87/87 91/91/91
f 87/87/87 92/92/92 91/91/91
f 87/87/87 88/88/88 92/92/92
f 88/88/88 89/90/90 92/92/92
f 88/88/88 85/86/86 89/90/90
f 89/90/90 94/93/93 93/94/94
f 89/90/90 90/89/89 94/93/93
f 90/89/89 95/95/95 94/93/93
f 90/89/89 91/91/91 95/95/95
f 91/91/91 96/96/96 95/95/95
f 91/91/91 92/92/92 96/96/96
f 92/92/92 93/94/94 96/96/96
f 92/92/92 89/90/90 93/94/94
f 93/94/94 98/97/97 97/98/98
f 93/94/94 94/93/93 98/97/97
f 94/93/93 99/99/99 98/97/97
f 94/93/93 95/95/95 99/99/99
f 95/95/95 100/100/100 99/99/99
f 95/95/95 96/96/96 100/100/100
f 96/96/96 97/98/98 100/100/100
f 96/96/96 93/94/94 97/98/98
f 97/98/98 102/101/101 101/102/102
f 97/98/98 98/97/97 102/101/101
f 98/97/97 103/103/103 102/101/101
f 98/97/97 99/99/99 103/103/103
f 99/99/99 104/104/104 103/103/103
f 99/99/99 100/100/100 104/104/104
f 100/100/100 101/102/102 104/104/104
f 100/100/100 97/98/98 101/102/102
f 101/102/102 106/105/105 105/106/106
f 101/102/102 102/101/101 106/105/105
f 102/101/101 107/107/107 106/105/105
f 102/101/101 103/103/103 107/107/107
f 103/103/103 108/108/108 107/107/107
f 103/103/103 104/104/104 108/108/108
f 104/104/104 105/106/106 108/108/108
f 104/104/104 101/102/102 105/106/106
f 105/106/106 110/109/109 109/110/110
f 105/106/106 106/105/105 110/109/109
f 106/105/105 111/111/111 110/109/109
f 106/105/105 107/107/107 111/111/111
f 107/107/107 112/112/112 111/111/111
f 107/107/107 108/108/108 112/112/112
f 108/108/108 109/110/110 112/112/112
f 108/108/108 105/106/106 109/110/110
f 109/110/110 114/113/113 113/114/114
f 109/110/110 110/109/109 114/113/113
f 110/109/109 115/115/115 114/113/113
f 110/109/109 111/111/111 115/115/115
f 111/111/111 116/116/116 115/115/115
f 111/111/111 112/112/112 116/116/116
f 112/112/112 113/114/114 116/116/116
f 112/112/112 109/110/110 113/114/114
f 113/114/114 118/117/117 117/118/118
f 113/114/114 114/113/113 118/117/117
f 114/113/113 119/119/119 118/117/117
f 114/113/113 115/115/115 119/119/119
f 115/115/115 120/120/120 119/119/119
f 115/115/115 116/116/116 120/120/120
f 116/116/116 117/118/118 120/120/120
f 116/116/116 113/114/114 117/118/118
f 117/118/118 122/121/121 121/122/122
f 117/118/118 118/117/117 122/121/121
f 118/117/117 123/123/123 122/121/121
f 118/117/117 119/119/119 123/123/123
f 119/119/119 124/124/124 123/123/123
f 119/119/119 120/120/120 124/124/124
f 120/120/120 121/122/122 124/124/124
f 120/120/120 117/118/118 121/122/122
f 121/122/122 126/125/125 125/126/126
f 121/122/122 122/121/121 126/125/125
f 122/121/121 127/127/127 126/125/125
f 122/121/121 123/123/123 127/127/127
f 123/123/123 128/128/128 127/127/127
f 123/123/123 124/124/124 128/128/128
f 124/124/124 125/126/126 128/128/128
f 124/124/124 121/122/122 125/126/126
f 125/126/126 2/4/4 1/1/1
f 125/126/126 126/125/125 2/4/4
f 126/125/125 3/6/6 2/4/4
f 126/125/125 127/127/127 3/6/6
f 127/127/127 4/8/8 3/6/6
f 127/127/127 128/128/128 4/8/8
f 128/128/128 1/1/1 4/8/8
f 128/128/128 125/126/126 1/1/1
