# This file uses centimeters as units for non-parametric coordinates.

g default
v -0.076517 -0.016960 0.023013
v -3.532869 -0.016960 0.023013
v -3.069807 1.711215 0.023013
v -1.804693 2.976328 0.023013
v -0.076517 3.439391 0.023013
v 1.651657 2.976328 0.023013
v 2.916771 1.711215 0.023013
v 3.379834 -0.016961 0.023013
v 2.916770 -1.745136 0.023013
v 1.651657 -3.010249 0.023013
v -0.076517 -3.473312 0.023013
v -1.804693 -3.010248 0.023013
v -3.069807 -1.745136 0.023013
v -3.532869 -0.016960 -0.014732
v -3.069807 1.711215 -0.014732
v -1.804693 2.976328 -0.014732
v -0.076517 3.439391 -0.014732
v 1.651657 2.976328 -0.014732
v 2.916771 1.711215 -0.014732
v 3.379834 -0.016961 -0.014732
v 2.916770 -1.745136 -0.014732
v 1.651657 -3.010249 -0.014732
v -0.076517 -3.473312 -0.014732
v -1.804693 -3.010248 -0.014732
v -3.069807 -1.745136 -0.014732
v -0.076517 -0.016960 -0.014732
vt 0.497175 0.516949
vt 0.797267 0.683145
vt 0.843691 0.516949
vt 0.670433 0.804809
vt 0.497175 0.849341
vt 0.323917 0.804809
vt 0.197083 0.683145
vt 0.150659 0.516949
vt 0.197084 0.350753
vt 0.323917 0.229089
vt 0.497175 0.184557
vt 0.670433 0.229089
vt 0.797267 0.350753
vt 0.797267 0.683145
vt 0.843691 0.516949
vt 0.670433 0.804809
vt 0.497175 0.849341
vt 0.323917 0.804809
vt 0.197083 0.683145
vt 0.150659 0.516949
vt 0.197084 0.350753
vt 0.323917 0.229089
vt 0.497175 0.184557
vt 0.670433 0.229089
vt 0.797267 0.350753
vt 0.497175 0.516949
vn 0.000000 0.000000 1.000000
vn -0.011348 0.006552 0.999914
vn -0.013103 0.000000 0.999914
vn -0.006552 0.011348 0.999914
vn 0.000000 0.013104 0.999914
vn 0.006552 0.011348 0.999914
vn 0.011348 0.006552 0.999914
vn 0.013103 0.000000 0.999914
vn 0.011348 -0.006552 0.999914
vn 0.006552 -0.011348 0.999914
vn -0.000000 -0.013103 0.999914
vn -0.006552 -0.011348 0.999914
vn -0.011348 -0.006552 0.999914
vn -0.011348 0.006552 -0.999914
vn -0.013103 -0.000000 -0.999914
vn -0.006552 0.011348 -0.999914
vn 0.000000 0.013103 -0.999914
vn 0.006552 0.011348 -0.999914
vn 0.011348 0.006552 -0.999914
vn 0.013103 -0.000000 -0.999914
vn 0.011348 -0.006552 -0.999914
vn 0.006552 -0.011348 -0.999914
vn 0.000000 -0.013104 -0.999914
vn -0.006552 -0.011348 -0.999914
vn -0.011348 -0.006552 -0.999914
vn 0.000000 -0.000000 -1.000000
s 1
g polySurface4 polySurface1
f 1/1/1 3/2/2 2/3/3
f 1/1/1 4/4/4 3/2/2
f 1/1/1 5/5/5 4/4/4
f 1/1/1 6/6/6 5/5/5
f 1/1/1 7/7/7 6/6/6
f 1/1/1 8/8/8 7/7/7
f 1/1/1 9/9/9 8/8/8
f 1/1/1 10/10/10 9/9/9
f 1/1/1 11/11/11 10/10/10
f 1/1/1 12/12/12 11/11/11
f 1/1/1 13/13/13 12/12/12
f 1/1/1 2/3/3 13/13/13
f 2/3/3 15/14/14 14/15/15
f 2/3/3 3/2/2 15/14/14
f 3/2/2 16/16/16 15/14/14
f 3/2/2 4/4/4 16/16/16
f 4/4/4 17/17/17 16/16/16
f 4/4/4 5/5/5 17/17/17
f 5/5/5 18/18/18 17/17/17
f 5/5/5 6/6/6 18/18/18
f 6/6/6 19/19/19 18/18/18
f 6/6/6 7/7/7 19/19/19
f 7/7/7 20/20/20 19/19/19
f 7/7/7 8/8/8 20/20/20
f 8/8/8 21/21/21 20/20/20
f 8/8/8 9/9/9 21/21/21
f 9/9/9 22/22/22 21/21/21
f 9/9/9 10/10/10 22/22/22
f 10/10/10 23/23/23 22/22/22
f 10/10/10 11/11/11 23/23/23
f 11/11/11 24/24/24 23/23/23
f 11/11/11 12/12/12 24/24/24
f 12/12/12 25/25/25 24/24/24
f 12/12/12 13/13/13 25/25/25
f 13/13/13 14/15/15 25/25/25
f 13/13/13 2/3/3 14/15/15
f 26/26/26 14/15/15 15/14/14
f 26/26/26 15/14/14 16/16/16
f 26/26/26 16/16/16 17/17/17
f 26/26/26 17/17/17 18/18/18
f 26/26/26 18/18/18 19/19/19
f 26/26/26 19/19/19 20/20/20
f 26/26/26 20/20/20 21/21/21
f 26/26/26 21/21/21 22/22/22
f 26/26/26 22/22/22 23/23/23
f 26/26/26 23/23/23 24/24/24
f 26/26/26 24/24/24 25/25/25
f 26/26/26 25/25/25 14/15/15
